<?xml version="1.0" encoding="utf-8" ?>
<svg baseProfile="full" height="200mm" version="1.1" viewBox="0,0,200,200" width="200mm" xmlns="http://www.w3.org/2000/svg" xmlns:ev="http://www.w3.org/2001/xml-events" xmlns:xlink="http://www.w3.org/1999/xlink"><defs /><rect fill="#1a1a1a" height="200" width="200" x="0" y="0" /><text alignment-baseline="middle" fill="#e1ed5e" style="dominant-baseline: central; font-size:9.0px; font-family:Arial;" text-anchor="middle" x="100.0" y="100.0">2014</text><line stroke="#e1ed5e" stroke-width="0.3" x1="100.0" x2="100.0" y1="15.0" y2="10.0" /><path d="M 100.0 14.0 a86.0,86.0 0 0,1 42.46469731375804,11.215312516191453" fill="none" id="id1" stroke="none" /><text fill="#e1ed5e" style="font-size:6.75px; font-family:Arial;" text-anchor="middle"><textPath startOffset="22.20632615414155" xlink:href="#id1">January</textPath></text><line stroke="#e1ed5e" stroke-width="0.3" x1="143.23703022742887" x2="145.7803849466894" y1="26.81831364943548" y2="22.513508569990506" /><path d="M 143.74570117128098 25.957352633546492 a86.0,86.0 0 0,1 28.547481713284135,27.462654790039103" fill="none" id="id2" stroke="none" /><text fill="#e1ed5e" style="font-size:6.75px; font-family:Arial;" text-anchor="middle"><textPath startOffset="19.985693538727396" xlink:href="#id2">February</textPath></text><line stroke="#e1ed5e" stroke-width="0.3" x1="172.23445277983987" x2="176.4835382374775" y1="55.19839476539836" y2="52.563006222186495" /><path d="M 173.08426987136738 54.67131705675599 a86.0,86.0 0 0,1 12.851231095245387,41.99856678651699" fill="none" id="id3" stroke="none" /><text fill="#e1ed5e" style="font-size:6.75px; font-family:Arial;" text-anchor="middle"><textPath startOffset="22.20632615414155" xlink:href="#id3">March</textPath></text><line stroke="#e1ed5e" stroke-width="0.3" x1="184.98032266829074" x2="189.97916517819016" y1="98.17113171792111" y2="98.06355123074" /><path d="M 185.9800911702706 98.14961562048488 a86.0,86.0 0 0,1 -9.607161424134198,41.387399972396054" fill="none" id="id4" stroke="none" /><text fill="#e1ed5e" style="font-size:6.75px; font-family:Arial;" text-anchor="middle"><textPath startOffset="21.466115282336823" xlink:href="#id4">April</textPath></text><line stroke="#e1ed5e" stroke-width="0.3" x1="174.80103733775053" x2="179.2010983576182" y1="140.37084112569926" y2="142.7455964860345" /><path d="M 175.68104954172406 140.8457921977663 a86.0,86.0 0 0,1 -30.038265399797805,32.042727171017184" fill="none" id="id5" stroke="none" /><text fill="#e1ed5e" style="font-size:6.75px; font-family:Arial;" text-anchor="middle"><textPath startOffset="22.206326154141568" xlink:href="#id5">May</textPath></text><line stroke="#e1ed5e" stroke-width="0.3" x1="143.8653032363475" x2="146.44561519142675" y1="172.8068346515853" y2="177.08958963109032" /><path d="M 144.38136562736335 173.6633856474863 a86.0,86.0 0 0,1 -40.68145358897372,12.25698825130547" fill="none" id="id6" stroke="none" /><text fill="#e1ed5e" style="font-size:6.75px; font-family:Arial;" text-anchor="middle"><textPath startOffset="21.466115282336833" xlink:href="#id6">June</textPath></text><line stroke="#e1ed5e" stroke-width="0.3" x1="102.19456741930631" x2="102.32365962044197" y1="184.97166512339345" y2="189.96999836594603" /><path d="M 102.22038585953345 185.97133177190398 a86.0,86.0 0 0,1 -42.740103519485714,-10.115201625700543" fill="none" id="id7" stroke="none" /><text fill="#e1ed5e" style="font-size:6.75px; font-family:Arial;" text-anchor="middle"><textPath startOffset="22.20632615414155" xlink:href="#id7">July</textPath></text><line stroke="#e1ed5e" stroke-width="0.3" x1="58.666819895761336" x2="56.23545636021788" y1="174.27360380694188" y2="178.64263932499728" /><path d="M 58.180547188652646 175.14741091055294 a86.0,86.0 0 0,1 -31.652253787137756,-30.449443065178592" fill="none" id="id8" stroke="none" /><text fill="#e1ed5e" style="font-size:6.75px; font-family:Arial;" text-anchor="middle"><textPath startOffset="22.20632615414155" xlink:href="#id8">August</textPath></text><path d="M 83.72743513129214 113.27417163493432 l -7.647024811585955 6.237979117895117 a30.86860536977271,30.86860536977271 0 0,0 -0.3323256549501307,-0.41462735195569317 l 7.753268378590946 -6.105423932361164" fill="#ff5808" stroke="none" /><path d="M 83.50135304334701 112.99209946851258 l -6.832208159147228 5.380121668548714 a29.696250772505664,29.696250772505664 0 0,0 -0.3127908678600439,-0.4043243613424138 l 6.923805844225341 -5.261719313093048" fill="#ff4606" stroke="none" /><path d="M 82.6465618267979 111.8261652097733 l -6.5636514490071685 4.473051716932675 a28.94290324795715,28.94290324795715 0 0,0 -0.2770206511065273,-0.41410828674874167 l 6.639675205524426 -4.359406515978113" fill="#ff3b05" stroke="none" /><path d="M 82.44556493220864 111.52570212397912 l -6.051777879409912 3.9734112142715894 a28.23961409050333,28.23961409050333 0 0,0 -0.2632942428109336,-0.4086385118408513 l 6.1192769855978915 -3.86865110250929" fill="#ff3104" stroke="none" /><line stroke="#e1ed5e" stroke-width="0.3" x1="26.63291911575756" x2="22.317208475507996" y1="142.92168965132927" y2="145.44649492493687" /><path d="M 25.769776987707644 143.4266507060508 a86.0,86.0 0 0,1 -11.730757126820373,-40.83630448921669" fill="none" id="id9" stroke="none" /><text fill="#e1ed5e" style="font-size:6.75px; font-family:Arial;" text-anchor="middle"><textPath startOffset="21.46611528233685" xlink:href="#id9">September</textPath></text><path d="M 81.87401531095188 110.60418214915194 l -6.885459541290549 4.0281765878670965 a28.977202499484996,28.977202499484996 0 0,0 -0.24816628698193915,-0.432698839351598 l 6.953777824424865 -3.909057902657192" fill="#ff3c05" stroke="none" /><path d="M 81.69416730710424 110.29060199501025 l -8.209799903573192 4.615129215025123 a30.418080065920485,30.418080065920485 0 0,0 -0.2526490829851953,-0.4586314725050443 l 8.288025396009903 -4.473127224122257" fill="#ff5107" stroke="none" /><path d="M 81.51974371655577 109.97397251340807 l -6.392158961383403 3.4499098283225123 a28.263716267252626,28.263716267252626 0 0,0 -0.22738495102837222,-0.430126635089521 l 6.4505964206366615 -3.339368178146865" fill="#ff3104" stroke="none" /><path d="M 80.58989483394504 108.01547362559985 l -7.292712823741877 3.0115523227562977 a28.89006386046831,28.89006386046831 0 0,0 -0.18585581435649465,-0.46127888930841654 l 7.34347125235576 -2.8855740656050757" fill="#ff3b05" stroke="none" /><path d="M 80.45479744820244 107.68017299344265 l -7.017912802537216 2.7576477774299 a28.5402732953375,28.5402732953375 0 0,0 -0.17573431424055952,-0.4587868409831862 l 7.064341396371285 -2.636437369613556" fill="#ff3505" stroke="none" /><path d="M 80.32549172779594 107.34259656027581 l -10.380256745688417 3.873948788003592 a32.079585250291835,32.079585250291835 0 0,0 -0.18862145216312798,-0.5190052266627011 l 10.445402458856769 -3.694695764334774" fill="#ff6909" stroke="none" /><path d="M 80.20201598880116 107.00284435728193 l -6.415637504222518 2.2693073632849377 a27.805156904483965,27.805156904483965 0 0,0 -0.1557210190014054,-0.45259817261132035 l 6.453749354167153 -2.1585364875843203" fill="#ff2a04" stroke="none" /><path d="M 80.0844068197444 106.66101706037122 l -7.738462479929709 2.5882247208663283 a29.159822838700816,29.159822838700816 0 0,0 -0.15511324619410624,-0.47738948420941485 l 7.781867977140065 -2.4546363366791097" fill="#ff3f05" stroke="none" /><path d="M 79.97269907076064 106.31721596034903 l -8.998935979775293 2.8385363658564007 a30.436002197349445,30.436002197349445 0 0,0 -0.1533006754487695,-0.5009954772843004 l 9.046463427730192 -2.6832139160200525" fill="#ff5107" stroke="none" /><path d="M 79.86692584326677 105.97154293290107 l -8.050780695942489 2.387890800725709 a29.397445581267597,29.397445581267597 0 0,0 -0.1397181678928843,-0.4863772717367559 l 8.090691500721478 -2.248956053484357" fill="#ff4206" stroke="none" /><path d="M 79.67330655649465 105.27499134158121 l -27.05553264406774 7.021196085629233 a48.95172697933118,48.95172697933118 0 0,0 -0.20463846545250516,-0.8174289459557642 l 27.172382423815304 -6.554439300276077" fill="#b7ff1f" stroke="none" /><path d="M 79.58551787078972 104.9243191809786 l -13.242849184553293 3.194399732383772 a34.6226738996086,34.6226738996086 0 0,0 -0.13476370335833074,-0.5805585069738881 l 13.29587345384218 -2.9659725680613094" fill="#ff8d0d" stroke="none" /><path d="M 79.50377843672027 104.57218783832718 l -9.558878308749442 2.132343613498689 a30.793826821396692,30.793826821396692 0 0,0 -0.11095450037114665,-0.5183424870788386 l 9.59416684784503 -1.9674873070036867" fill="#ff5608" stroke="none" /><path d="M 79.4281124754447 104.21870165774334 l -8.442382501542758 1.7312895091444327 a29.618073199203458,29.618073199203458 0 0,0 -0.09812053988572389,-0.5003145189578062 l 8.470932974404148 -1.5857112631186716" fill="#ff4506" stroke="none" /><path d="M 79.35854240842038 103.8639653848113 l -9.325619435141812 1.7457037871206784 a30.487605575774225,30.487605575774225 0 0,0 -0.09212128754011721,-0.5166651028314082 l 9.354287165021118 -1.5849199335560566" fill="#ff5207" stroke="none" /><path d="M 79.29508885075956 103.50808413554451 l -10.032156137864133 1.6997729446348158 a31.175135617661198,31.175135617661198 0 0,0 -0.08509067053110372,-0.5298596866225793 l 10.059928562756529 -1.5268340283190227" fill="#ff5c08" stroke="none" /><path d="M 79.18660465613746 102.79330883721812 l -14.17293792080622 1.9021112168133583 a35.30000686671703,35.30000686671703 0 0,0 -0.07564033488467448,-0.6029278922201886 l 14.203579764937741 -1.657865570305761" fill="#ff970d" stroke="none" /><path d="M 79.1416061653843 102.43462659150553 l -15.794032039061667 1.8435058180546788 a36.90125660921513,36.90125660921513 0 0,0 -0.06821056444232522,-0.6315451120202578 l 15.823424905005044 -1.571364384149639" fill="#ffad10" stroke="none" /><path d="M 79.07016306316243 101.71520430193888 l -16.002729817913607 1.3114268930658144 a37.05637574675548,37.05637574675548 0 0,0 -0.04662652241222571,-0.6361818533702506 l 16.022932898990167 -1.035771903198803" fill="#ffaf10" stroke="none" /><path d="M 79.04373962182676 101.35467743843564 l -8.474004445501494 0.5477858371849871 a29.49169127240266,29.49169127240266 0 0,0 -0.028387366624456817,-0.5068755006339737 l 8.482178163013483 -0.40183862021557576" fill="#ff4306" stroke="none" /><path d="M 79.0235259727143 100.99374915477108 l -16.83132554882604 0.7973749790391752 a37.85020256815217,37.85020256815217 0 0,0 -0.025229624147815714,-0.651064493940277 l 16.842557305825057 -0.5075332380849015" fill="#ffb911" stroke="none" /><path d="M 79.0095281055655 100.63252640178507 l -18.6172787354572 0.5610126532072325 a39.62572958868365,39.62572958868365 0 0,0 -0.014676497181029844,-0.6819591538141285 l 18.62417729532324 -0.2404636836029751" fill="#ffd113" stroke="none" /><line stroke="#e1ed5e" stroke-width="0.3" x1="15.007084014347285" x2="10.007500721073583" y1="101.09737516637583" y2="101.16192664675087" /><path d="M 14.007167355692545 101.11028546245083 a86.0,86.0 0 0,1 10.666146001902534,-42.60595125391555" fill="none" id="id10" stroke="none" /><text fill="#e1ed5e" style="font-size:6.75px; font-family:Arial;" text-anchor="middle"><textPath startOffset="22.20632615414155" xlink:href="#id10">October</textPath></text><path d="M 79.00019446554 99.90962569577889 l -8.49470263114703 -0.03655761662151857 a29.49478129506283,29.49478129506283 0 0,0 0.00655485401755213,-0.5076806673619718 l 8.492814770011762 0.18277454204396237" fill="#ff4306" stroke="none" /><path d="M 79.01574976396665 99.18683210126434 l -8.790079100451205 -0.3406273786975789 a29.796676508961067,29.796676508961067 0 0,0 0.02427207722390434,-0.5123451879491873 l 8.782913414993802 0.4918836732697753" fill="#ff4806" stroke="none" /><path d="M 79.03285615573316 98.82574320788736 l -21.915324979649775 -1.2273593103500497 a42.949666964224406,42.949666964224406 0 0,0 0.04769337381728537,-0.7377953833664675 l 21.890951014828076 1.604413757969529" fill="#fffd17" stroke="none" /><path d="M 79.08570108090925 98.10471618934814 l -10.537059598046923 -0.9548834768648458 a31.58023758840898,31.58023758840898 0 0,0 0.05372080277600437,-0.5409611527008773 l 10.519061669588691 1.1361201602701534" fill="#ff6209" stroke="none" /><path d="M 79.12142395522702 97.74499172005258 l -8.100353359872807 -0.8748855217828015 a29.14746274806015,29.14746274806015 0 0,0 0.05816951783867824,-0.4983609053158966 l 8.084093489030542 1.0141901654235599" fill="#ff3e05" stroke="none" /><path d="M 79.16333360222342 97.38593545837743 l -12.972199928732215 -1.6274276898801852 a34.073885875163086,34.073885875163086 0 0,0 0.07801946478688587,-0.5813356344596674 l 12.942264464887495 1.8504816664045118" fill="#ff850c" stroke="none" /><path d="M 79.21141760316559 97.0276538004421 l -13.74920593636878 -1.9658579518210821 a34.88903385291492,34.88903385291492 0 0,0 0.090120212862729,-0.5937796031816258 l 13.713329830066748 2.2022366673948" fill="#ff910d" stroke="none" /><path d="M 79.54389044137918 95.25157060432595 l -32.05250691923059 -7.440274291852284 a53.904724301311546,53.904724301311546 0 0,0 0.21758821579690418,-0.9020436287052134 l 31.91968590317287 7.9909031522168945" fill="#7eff26" stroke="none" /><path d="M 79.62865764111835 94.90015583598534 l -15.126682406469474 -3.786874798552623 a36.59349035226258,36.59349035226258 0 0,0 0.15822967398352195,-0.6097234798047544 l 15.059256400615645 4.046694703906241" fill="#ffa80f" stroke="none" /><path d="M 79.81627453868168 94.20196356495316 l -13.40410749226042 -3.8505034052486633 a34.946199272128,34.946199272128 0 0,0 0.17106015254923415,-0.5767297958390022 l 13.33584144259948 4.080662587834205" fill="#ff920d" stroke="none" /><path d="M 80.02781315780177 93.51064311812611 l -11.762197832650388 -3.8217697468161105 a33.3675066950491,33.3675066950491 0 0,0 0.18219088655918253,-0.5447275611182059 l 11.694669652319433 4.023670410856639" fill="#ff7b0b" stroke="none" /><path d="M 80.14247586403 93.16781622104843 l -32.62434152908438 -11.224737558809387 a55.501339009819404,55.501339009819404 0 0,0 0.31859597278876495,-0.9007137176689418 l 32.42629247548581 11.78464890290494" fill="#6cff28" stroke="none" /><path d="M 80.2630227832202 92.82701384747504 l -16.141993913092698 -5.866465646741382 a38.17496394973563,38.17496394973563 0 0,0 0.22976858463630317,-0.6156655730721163 l 16.038620739954766 6.14345435684284" fill="#ffbe11" stroke="none" /><path d="M 80.38941819471856 92.48833698450439 l -9.136894806051021 -3.499808188893378 a30.784247751150176,30.784247751150176 0 0,0 0.1938036245115285,-0.4932090852099921 l 9.0752976316578 3.6565662789991333" fill="#ff5608" stroke="none" /><path d="M 81.10775173730289 90.83032412892265 l -13.643927913912515 -6.622313810366001 a36.166140218361605,36.166140218361605 0 0,0 0.2766537283906031,-0.5577170347961181 l 13.527914172568499 6.856190433661081" fill="#ffa20f" stroke="none" /><path d="M 81.26839172434947 90.50648371742162 l -17.550925832127383 -8.895125165425247 a40.67633729314015,40.67633729314015 0 0,0 0.3219058834151121,-0.6218197061731988 l 17.395210515552158 9.195917593858782" fill="#ffdf14" stroke="none" /><path d="M 81.6062741919709 89.86733742301443 l -14.478827299511364 -7.9760388443082775 a37.53038522282497,37.53038522282497 0 0,0 0.31658195055118665,-0.5631639648672396 l 14.339387707667747 8.224086319110302" fill="#ffb510" stroke="none" /><line stroke="#e1ed5e" stroke-width="0.3" x1="26.266209847984243" x2="21.928928074336255" y1="57.711370442889674" y2="55.22380399835377" /><path d="M 25.398753493254645 57.213857153982495 a86.0,86.0 0 0,1 29.58750427330803,-30.492523968695096" fill="none" id="id11" stroke="none" /><text fill="#e1ed5e" style="font-size:6.75px; font-family:Arial;" text-anchor="middle"><textPath startOffset="21.46611528233685" xlink:href="#id11">November</textPath></text><path d="M 81.78341655067845 89.55222093294921 l -22.19554731444272 -12.729839009532087 a46.58693263750601,46.58693263750601 0 0,0 0.4049520880513995,-0.692194385627823 l 21.973135551920997 13.110012807513803" fill="#d4ff1c" stroke="none" /><path d="M 81.96595687620814 89.24020034530311 l -10.171779868078442 -6.068872784706466 a32.84467486094898,32.84467486094898 0 0,0 0.29385692937134084,-0.4830235274093569 l 10.065807140420883 6.243064085322898" fill="#ff740a" stroke="none" /><path d="M 82.34701348167596 88.62581576622439 l -39.58635601072068 -25.506307725459852 a68.0919453409325,68.0919453409325 0 0,0 0.6433176695555044,-0.9798169462214219 l 39.14144170580725 26.183942735658942" fill="#38ff83" stroke="none" /><path d="M 82.7489923806493 88.02491185347247 l -11.469421453675295 -7.961699161466429 a34.96195838769484,34.96195838769484 0 0,0 0.3474342620216125,-0.49142112440715946 l 11.330674571849805 8.157946786205375" fill="#ff920d" stroke="none" /><path d="M 83.6137871275137 86.86637796730984 l -8.534924563133625 -6.840779755640511 a31.938062212456224,31.938062212456224 0 0,0 0.3475188274144873,-0.4260169913214717 l 8.415907243642744 6.986680916570065" fill="#ff6709" stroke="none" /><path d="M 84.5562425177563 85.77008943001954 l -9.94017382292165 -9.158897030911293 a34.51637712009888,34.51637712009888 0 0,0 0.406360778632368,-0.433477345959086 l 9.781045722318828 9.328643793748428" fill="#ff8c0c" stroke="none" /><path d="M 84.80347519578584 85.50635884689758 l -14.589504576800653 -13.914697383908143 a41.16116184852022,41.16116184852022 0 0,0 0.4934159707034453,-0.5085085302982096 l 14.347824342394091 14.163770109756477" fill="#ffe515" stroke="none" /><path d="M 85.31137513191541 84.99185889309783 l -11.498988270519778 -11.749121520936376 a37.4398475588821,37.4398475588821 0 0,0 0.46446226884214936,-0.44681233463316955 l 11.295042758065202 11.945316942331859" fill="#ffb410" stroke="none" /><path d="M 85.83668400450813 84.49514656593479 l -42.48994798647562 -46.514560302195655 a84.0,84.0 0 0,0 1.0759560496161145,-0.9660039649228849 l 41.68298094926353 47.23906327588782" fill="#4dd2ff" stroke="none" /><path d="M 88.09926311788651 82.69761687909137 l -4.4502995917545265 -6.470253842439821 a28.852983588546316,28.852983588546316 0 0,0 0.41162944930922063,-0.2779340416478583 l 4.338265448038767 6.545899796386344" fill="#ff3a05" stroke="none" /><path d="M 88.39885842347998 82.49532879139004 l -3.5561008032400867 -5.365711204781627 a27.437135205658173,27.437135205658173 0 0,0 0.39592174692044,-0.25751851747692966 l 3.4632120305353595 5.426128646418092" fill="#ff2503" stroke="none" /><line stroke="#e1ed5e" stroke-width="0.3" x1="56.762969772571076" x2="54.21961505331055" y1="26.818313649435495" y2="22.513508569990535" /><path d="M 56.25429882871897 25.957352633546506 a86.0,86.0 0 0,1 42.265352541879196,-11.944610805530505" fill="none" id="id12" stroke="none" /><text fill="#e1ed5e" style="font-size:6.75px; font-family:Arial;" text-anchor="middle"><textPath startOffset="22.20632615414155" xlink:href="#id12">December</textPath></text><path d="M 93.59665428221793 80.00007090966166 l -11.726223815160495 -36.62517301687694 a59.45656801483211,59.45656801483211 0 0,0 0.9773941412923559,-0.3036811174104217 l 11.09404430115741 36.821594269169886" fill="#42ff2d" stroke="none" /><path d="M 93.94186890950719 79.89281104454417 l -5.550587819597349 -18.422631738300108 a40.24064409805672,40.24064409805672 0 0,0 0.6649474831969502,-0.19411640440576405 l 5.232650118676977 18.515446471624568" fill="#ffd914" stroke="none" /><path d="M 96.04723909329186 79.375362276772 l -0.7547745012264673 -3.9382474725723187 a25.009922406097644,25.009922406097644 0 0,0 0.42350716325935184,-0.07739322709598538 l 0.6868722168642222 3.95065618101904" fill="#ff0000" stroke="none" /></svg>