<?xml version="1.0" encoding="utf-8" ?>
<svg baseProfile="full" height="200mm" version="1.1" viewBox="0,0,200,200" width="200mm" xmlns="http://www.w3.org/2000/svg" xmlns:ev="http://www.w3.org/2001/xml-events" xmlns:xlink="http://www.w3.org/1999/xlink"><defs /><rect fill="#1a1a1a" height="200" width="200" x="0" y="0" /><text alignment-baseline="middle" fill="#e1ed5e" style="dominant-baseline: central; font-size:9.0px; font-family:Arial;" text-anchor="middle" x="100.0" y="100.0">2015</text><line stroke="#e1ed5e" stroke-width="0.3" x1="100.0" x2="100.0" y1="15.0" y2="10.0" /><path d="M 100.0 14.0 a86.0,86.0 0 0,1 42.46469731375804,11.215312516191453" fill="none" id="id13" stroke="none" /><text fill="#e1ed5e" style="font-size:6.75px; font-family:Arial;" text-anchor="middle"><textPath startOffset="22.20632615414155" xlink:href="#id13">January</textPath></text><line stroke="#e1ed5e" stroke-width="0.3" x1="143.23703022742887" x2="145.7803849466894" y1="26.81831364943548" y2="22.513508569990506" /><path d="M 143.74570117128098 25.957352633546492 a86.0,86.0 0 0,1 28.547481713284135,27.462654790039103" fill="none" id="id14" stroke="none" /><text fill="#e1ed5e" style="font-size:6.75px; font-family:Arial;" text-anchor="middle"><textPath startOffset="19.985693538727396" xlink:href="#id14">February</textPath></text><path d="M 111.90073688211348 82.69761687909136 l 8.19957119335511 -11.92128887647509 a35.46893555971785,35.46893555971785 0 0,0 0.5000593967307897,0.35032356410070065 l -8.403561729669551 11.778380469610454" fill="#ff0000" stroke="none" /><path d="M 112.48926042617603 83.11751280151076 l 26.220951663289046 -35.44444312009764 a65.08907862750567,65.08907862750567 0 0,0 0.8949867524769188,0.6740854669443807 l -26.82718456952435 34.98784106364741" fill="#32ff2f" stroke="none" /><path d="M 113.34407831869373 83.78471172551755 l 21.544068421697652 -26.179648509227224 a54.904584944008285,54.904584944008285 0 0,0 0.7245900906485627,0.6068233628227169 l -21.991516049305332 25.80492398901069" fill="#bbff1f" stroke="none" /><path d="M 113.89432698308785 84.25364557470407 l 21.991414499743456 -24.922733389537314 a54.23800462280317,54.23800462280317 0 0,0 0.6947346332500929,0.6237396132753521 l -22.41716012058954 24.540494767492664" fill="#c5ff1e" stroke="none" /><path d="M 116.82858285166822 87.43820079747576 l 25.531085471082367 -19.057835822368627 a52.85965209420954,52.85965209420954 0 0,0 0.5380039972407126,0.733836847615279 l -25.855352080836706 18.615536531081855" fill="#d9ff1c" stroke="none" /><line stroke="#e1ed5e" stroke-width="0.3" x1="172.23445277983987" x2="176.4835382374775" y1="55.19839476539836" y2="52.563006222186495" /><path d="M 173.08426987136738 54.67131705675599 a86.0,86.0 0 0,1 12.851231095245387,41.99856678651699" fill="none" id="id15" stroke="none" /><text fill="#e1ed5e" style="font-size:6.75px; font-family:Arial;" text-anchor="middle"><textPath startOffset="22.20632615414155" xlink:href="#id15">March</textPath></text><path d="M 119.196687751892 91.48605970444005 l 31.712059101554352 -14.064643928653352 a55.69104929661658,55.69104929661658 0 0,0 0.38111053154919255,0.8796556519313045 l -31.949460342946225 13.516689132135445" fill="#b0ff20" stroke="none" /><path d="M 119.7369772167798 92.82701384747503 l 29.597207017503173 -10.756477740141154 a52.49121268879767,52.49121268879767 0 0,0 0.30131685591388535,0.8518633274327454 l -29.777976954226865 10.245416786281794" fill="#dfff1b" stroke="none" /><path d="M 119.85752413597 93.16781622104841 l 37.97683236452924 -13.06631664049723 a61.16177818515124,61.16177818515124 0 0,0 0.33395119068762663,0.9984715540461478 l -38.196120848988635 12.410671983528768" fill="#64ff29" stroke="none" /><path d="M 119.97218684219823 93.5106431181261 l 42.034477005944794 -13.657829500080672 a65.19766468736302,65.19766468736302 0 0,0 0.33761373837476183,1.0703278119216442 l -42.26334622808776 12.932251521732608" fill="#31ff2f" stroke="none" /><path d="M 120.18372546131832 94.20196356495316 l 32.1185707354456 -9.226475247230178 a54.41751683736501,54.41751683736501 0 0,0 0.2508731210849818,0.902524095736338 l -32.272630627096945 8.672239848074888" fill="#c2ff1e" stroke="none" /><path d="M 120.28053869075195 94.5502522615342 l 34.32266794384234 -9.223121972118186 a56.54028015781294,56.54028015781294 0 0,0 0.2444792778766741,0.9420783870327692 l -34.47634355358932 8.630947159536566" fill="#a4ff21" stroke="none" /><path d="M 120.37134235888165 94.90015583598534 l 32.52611611240558 -8.142719341300237 a54.529868887737614,54.529868887737614 0 0,0 0.22011163275038964,0.9125048210870129 l -32.66146054541679 7.581629288553818" fill="#c1ff1e" stroke="none" /><path d="M 120.73433829027371 96.67025291283417 l 26.86692806454698 -4.314585506014634 a48.21116446817838,48.21116446817838 0 0,0 0.12453197822987176,0.8205101415970603 l -26.937215936216152 3.851476252025491" fill="#ffdd14" stroke="none" /><path d="M 120.83666639777658 97.38593545837742 l 33.60662910443608 -4.216120555385091 a54.87006336428485,54.87006336428485 0 0,0 0.10950404696513746,0.9381638014027892 l -33.67422350440481 3.637013015657449" fill="#bcff1f" stroke="none" /><path d="M 120.91429891909075 98.10471618934814 l 42.58330622981411 -3.8589603798636958 a63.75780098035308,63.75780098035308 0 0,0 0.08964199926089755,1.0938594458408615 l -42.6434227128945 3.1253870168150657" fill="#43ff2d" stroke="none" /><line stroke="#e1ed5e" stroke-width="0.3" x1="184.98032266829074" x2="189.97916517819016" y1="98.17113171792111" y2="98.06355123074" /><path d="M 185.9800911702706 98.14961562048488 a86.0,86.0 0 0,1 -9.607161424134198,41.387399972396054" fill="none" id="id16" stroke="none" /><text fill="#e1ed5e" style="font-size:6.75px; font-family:Arial;" text-anchor="middle"><textPath startOffset="21.466115282336823" xlink:href="#id16">April</textPath></text><line stroke="#e1ed5e" stroke-width="0.3" x1="174.80103733775053" x2="179.2010983576182" y1="140.37084112569926" y2="142.7455964860345" /><path d="M 175.68104954172406 140.8457921977663 a86.0,86.0 0 0,1 -30.038265399797805,32.042727171017184" fill="none" id="id17" stroke="none" /><text fill="#e1ed5e" style="font-size:6.75px; font-family:Arial;" text-anchor="middle"><textPath startOffset="22.206326154141568" xlink:href="#id17">May</textPath></text><line stroke="#e1ed5e" stroke-width="0.3" x1="143.8653032363475" x2="146.44561519142675" y1="172.8068346515853" y2="177.08958963109032" /><path d="M 144.38136562736335 173.6633856474863 a86.0,86.0 0 0,1 -40.68145358897372,12.25698825130547" fill="none" id="id18" stroke="none" /><text fill="#e1ed5e" style="font-size:6.75px; font-family:Arial;" text-anchor="middle"><textPath startOffset="21.466115282336833" xlink:href="#id18">June</textPath></text><line stroke="#e1ed5e" stroke-width="0.3" x1="102.19456741930631" x2="102.32365962044197" y1="184.97166512339345" y2="189.96999836594603" /><path d="M 102.22038585953345 185.97133177190398 a86.0,86.0 0 0,1 -42.740103519485714,-10.115201625700543" fill="none" id="id19" stroke="none" /><text fill="#e1ed5e" style="font-size:6.75px; font-family:Arial;" text-anchor="middle"><textPath startOffset="22.20632615414155" xlink:href="#id19">July</textPath></text><path d="M 97.2962882734958 120.8252237178851 l -4.215976900433895 32.47338141869594 a53.74591519547284,53.74591519547284 0 0,0 -0.9164226462855269,-0.12700782831299753 l 4.774328137906252 -32.39599902489034" fill="#ccff1d" stroke="none" /><path d="M 95.86986931433489 120.58985236759428 l -4.049973923065215 20.190248569602065 a41.59243613756824,41.59243613756824 0 0,0 -0.7007504307345038,-0.14684906602923642 l 4.396915815229106 -20.117543522846287" fill="#ff6e0a" stroke="none" /><path d="M 95.51606077576429 120.51570834832081 l -4.735047325891843 21.66462235447703 a43.17603514924481,43.17603514924481 0 0,0 -0.7246991628197297,-0.16493917003985847 l 5.107266638104435 -21.579906450859482" fill="#ff8a0c" stroke="none" /><path d="M 95.16358092515715 120.4354850818985 l -5.371657419035996 22.69704575907668 a44.324034591320284,44.324034591320284 0 0,0 -0.7409431785814904,-0.18210580623735828 l 5.761553882360697 -22.601218694525294" fill="#ff9d0e" stroke="none" /><path d="M 94.11515582081647 120.15858648285463 l -8.975366499881767 30.74519839338978 a53.028494002311405,53.028494002311405 0 0,0 -0.8740232781878717,-0.2633360439957281 l 9.503264752509885 -30.58614698028833" fill="#d7ff1c" stroke="none" /><path d="M 93.42475214034765 119.94407469862007 l -11.926398545735742 36.17521172718858 a59.09048340174551,59.09048340174551 0 0,0 -0.9632600458946651,-0.326790106905941 l 12.547328324567632 -35.96455863338452" fill="#80ff25" stroke="none" /><path d="M 92.7421414339146 119.70592522655815 l -21.773575698256195 59.117775679674445 a84.0,84.0 0 0,0 -1.3525191169588682,-0.5114069995734671 l 22.787965035975347 -58.734220429994345" fill="#4dd2ff" stroke="none" /><path d="M 92.06813273071674 119.44442032107085 l -11.7652764806735 28.841756085575145 a52.14913521699278,52.14913521699278 0 0,0 -0.8282488074949093,-0.3462080687058405 l 12.259996747665872 -28.634962973849333" fill="#e4ff1a" stroke="none" /><path d="M 91.7346041902142 119.30500536409082 l -12.503581022218004 29.203888629081682 a52.768012991670986,52.768012991670986 0 0,0 -0.8319237209968507,-0.3646909113004913 l 13.004425417872598 -28.98433316448674" fill="#dbff1b" stroke="none" /><path d="M 91.07499286063937 119.00905698771935 l -12.494938859671583 26.61252827396408 a50.399832622643764,50.399832622643764 0 0,0 -0.7821269993632257,-0.37546848947383155 l 12.95117852703505 -26.393505507990685" fill="#ffff18" stroke="none" /><path d="M 90.42595943632237 118.69057910512821 l -13.007825745320229 25.39406371443669 a49.531771808871,49.531771808871 0 0,0 -0.7554989106839541,-0.39524132298620046 l 13.44301555853068 -25.166392972505772" fill="#fff216" stroke="none" /><line stroke="#e1ed5e" stroke-width="0.3" x1="58.666819895761336" x2="56.23545636021788" y1="174.27360380694188" y2="178.64263932499728" /><path d="M 58.180547188652646 175.14741091055294 a86.0,86.0 0 0,1 -31.652253787137756,-30.449443065178592" fill="none" id="id20" stroke="none" /><text fill="#e1ed5e" style="font-size:6.75px; font-family:Arial;" text-anchor="middle"><textPath startOffset="22.20632615414155" xlink:href="#id20">August</textPath></text><path d="M 89.7882731507175 118.34994917583269 l -24.10263392861522 43.311196443221164 a70.56608416689912,70.56608416689912 0 0,0 -1.0563112176860292,-0.5998010774314742 l 24.844593913222457 -42.88989219999506" fill="#38ff7e" stroke="none" /><path d="M 88.8546689885994 117.79835938074946 l -18.38559884772312 29.36059013297505 a55.642091419917904,55.642091419917904 0 0,0 -0.8073884679913202,-0.515313520535278 l 18.888269117761364 -29.039762183615967" fill="#b0ff20" stroke="none" /><path d="M 88.54995079064634 117.60387380957326 l -20.621313667919786 31.704230869255763 a58.820587414816885,58.820587414816885 0 0,0 -0.8440062487172433,-0.5593613193957153 l 21.163994615376993 -31.34457152876873" fill="#84ff25" stroke="none" /><path d="M 87.95078237400918 117.19931262002967 l -21.78647691440784 31.098486140019986 a58.97059937034232,58.97059937034232 0 0,0 -0.8263540883363515,-0.5895817009661447 l 22.318558330593078 -30.71886017720962" fill="#82ff25" stroke="none" /><path d="M 87.36589467227662 116.77436683061367 l -19.09238728040769 25.349061101377682 a52.73474674211931,52.73474674211931 0 0,0 -0.720384945261225,-0.5523604572363662 l 19.5259009541624 -25.01666130231395" fill="#dbff1b" stroke="none" /><path d="M 87.07902340077011 116.55440617244103 l -27.052409729788803 34.65965402622211 a64.96731160084485,64.96731160084485 0 0,0 -0.8756433698531331,-0.6956640512995739 l 27.645010592359295 -34.1888560609174" fill="#34ff2f" stroke="none" /><path d="M 86.24171649860922 115.8653595955263 l -20.291590265496197 23.39923990479153 a51.97213366277448,51.97213366277448 0 0,0 -0.6708306792883799,-0.5919300783263366 l 20.691363297691165 -23.046486684692905" fill="#e7ff1a" stroke="none" /><path d="M 85.18274418774928 114.88116024355367 l -23.458834347475022 23.560008511368828 a54.24741959909138,54.24741959909138 0 0,0 -0.656030513035022,-0.6645554461374218 l 23.860905485565574 -23.152712571250742" fill="#c5ff1e" stroke="none" /><path d="M 84.67929136418377 114.36230785411682 l -20.67498888854769 19.381646264298052 a49.33907862750568,49.33907862750568 0 0,0 -0.575513549332794,-0.6246062924942954 l 21.005548845876216 -19.02288871700241" fill="#ffef16" stroke="none" /><path d="M 84.19399662182784 113.82643327865904 l -25.697432165016387 22.47904310542755 a55.14184234647112,55.14184234647112 0 0,0 -0.6187899135720545,-0.7197924657901063 l 26.08056458815922 -22.033373540475914" fill="#b8ff1f" stroke="none" /><path d="M 83.50135304334701 112.99209946851258 l -21.752236158637473 17.12911468304583 a48.686934603275816,48.686934603275816 0 0,0 -0.5128199059425874,-0.6628888572497862 l 22.04386288179813 -16.75214783168279" fill="#ffe415" stroke="none" /><path d="M 83.28015986056508 112.70617746262583 l -25.478049949053844 19.361944932163944 a53.00024907344678,53.00024907344678 0 0,0 -0.5457479392612916,-0.7311185494941078 l 25.80755915501022 -18.920513503160528" fill="#d7ff1c" stroke="none" /><path d="M 82.85270091963577 112.12312394758628 l -23.09380992391938 16.327301391171975 a49.282588769776424,49.282588769776424 0 0,0 -0.48376514960492006,-0.6968997789156817 l 23.371435980686435 -15.92736035006928" fill="#ffee16" stroke="none" /><path d="M 82.24976979558568 111.22182372390057 l -25.81203772372883 16.318556658398784 a51.53778942334516,51.53778942334516 0 0,0 -0.46760815611876577,-0.7539332373417199 l 26.08911051951555 -15.8718270896918" fill="#edff19" stroke="none" /><path d="M 82.05923443525364 110.91462005526583 l -24.1238341736782 14.676212301626922 a49.237396883593036,49.237396883593036 0 0,0 -0.43427178731798616,-0.7278644948114829 l 24.37288683669442 -14.25878571292933" fill="#ffed16" stroke="none" /><line stroke="#e1ed5e" stroke-width="0.3" x1="26.63291911575756" x2="22.317208475507996" y1="142.92168965132927" y2="145.44649492493687" /><path d="M 25.769776987707644 143.4266507060508 a86.0,86.0 0 0,1 -11.730757126820373,-40.83630448921669" fill="none" id="id21" stroke="none" /><text fill="#e1ed5e" style="font-size:6.75px; font-family:Arial;" text-anchor="middle"><textPath startOffset="21.46611528233685" xlink:href="#id21">September</textPath></text><path d="M 80.58989483394504 108.01547362559985 l -19.201639723810032 7.929387061932723 a41.7744590124736,41.7744590124736 0 0,0 -0.26874381920938517,-0.6670001197574864 l 19.33528615727681 -7.597687574332432" fill="#ff720a" stroke="none" /><path d="M 80.20201598880116 107.00284435728193 l -25.12934843393319 8.888628043299672 a47.655053202088226,47.655053202088226 0 0,0 -0.2668891051644684,-0.7757046676288365 l 25.278628370040884 -8.45475067258154" fill="#ffd413" stroke="none" /><path d="M 79.0095281055655 100.63252640178507 l -28.731508315392414 0.8657946169095759 a49.7445502729845,49.7445502729845 0 0,0 -0.018424285418369938,-0.8561041465522155 l 28.742154663495793 -0.3711006545672316" fill="#fff517" stroke="none" /><line stroke="#e1ed5e" stroke-width="0.3" x1="15.007084014347285" x2="10.007500721073583" y1="101.09737516637583" y2="101.16192664675087" /><path d="M 14.007167355692545 101.11028546245083 a86.0,86.0 0 0,1 10.666146001902534,-42.60595125391555" fill="none" id="id22" stroke="none" /><text fill="#e1ed5e" style="font-size:6.75px; font-family:Arial;" text-anchor="middle"><textPath startOffset="22.20632615414155" xlink:href="#id22">October</textPath></text><path d="M 80.803312248108 91.48605970444005 l -15.432590078786097 -6.8445219422650485 a37.88230781492847,37.88230781492847 0 0,0 0.26950138169673477,-0.5938105708068795 l 15.31248638012601 7.109154521913998" fill="#ff2c04" stroke="none" /><path d="M 81.26839172434947 90.50648371742162 l -23.08381642729088 -11.699293722761004 a46.879259155939906,46.879259155939906 0 0,0 0.3709947929599794,-0.7166438547277919 l 22.879012201170788 12.094910299749131" fill="#ffc712" stroke="none" /><path d="M 81.43458229118936 90.18545643968196 l -22.268069162353168 -11.771937385193969 a46.18819989638544,46.18819989638544 0 0,0 0.3776257063756,-0.6996830825086344 l 22.062135356759097 12.153501451035075" fill="#ffbc11" stroke="none" /><line stroke="#e1ed5e" stroke-width="0.3" x1="26.266209847984243" x2="21.928928074336255" y1="57.711370442889674" y2="55.22380399835377" /><path d="M 25.398753493254645 57.213857153982495 a86.0,86.0 0 0,1 29.58750427330803,-30.492523968695096" fill="none" id="id23" stroke="none" /><text fill="#e1ed5e" style="font-size:6.75px; font-family:Arial;" text-anchor="middle"><textPath startOffset="21.46611528233685" xlink:href="#id23">November</textPath></text><path d="M 82.95767976084542 87.72973835380427 l -20.54919548543341 -14.79516883187029 a46.32126489459211,46.32126489459211 0 0,0 0.4714564830301936,-0.6430661130197374 l 20.29147638988958 15.146697388561527" fill="#ffbe11" stroke="none" /><line stroke="#e1ed5e" stroke-width="0.3" x1="56.762969772571076" x2="54.21961505331055" y1="26.818313649435495" y2="22.513508569990535" /><path d="M 56.25429882871897 25.957352633546506 a86.0,86.0 0 0,1 42.265352541879196,-11.944610805530505" fill="none" id="id24" stroke="none" /><text fill="#e1ed5e" style="font-size:6.75px; font-family:Arial;" text-anchor="middle"><textPath startOffset="22.20632615414155" xlink:href="#id24">December</textPath></text></svg>