<?xml version="1.0" encoding="utf-8" ?>
<svg baseProfile="full" height="200mm" version="1.1" viewBox="0,0,200,200" width="200mm" xmlns="http://www.w3.org/2000/svg" xmlns:ev="http://www.w3.org/2001/xml-events" xmlns:xlink="http://www.w3.org/1999/xlink"><defs /><rect fill="#1a1a1a" height="200" width="200" x="0" y="0" /><text alignment-baseline="middle" fill="#e1ed5e" style="dominant-baseline: central; font-size:9.0px; font-family:Arial;" text-anchor="middle" x="100.0" y="100.0">2018</text><line stroke="#e1ed5e" stroke-width="0.3" x1="100.0" x2="100.0" y1="15.0" y2="10.0" /><path d="M 100.0 14.0 a86.0,86.0 0 0,1 42.46469731375804,11.215312516191453" fill="none" id="id49" stroke="none" /><text fill="#e1ed5e" style="font-size:6.75px; font-family:Arial;" text-anchor="middle"><textPath startOffset="22.20632615414155" xlink:href="#id49">January</textPath></text><line stroke="#e1ed5e" stroke-width="0.3" x1="143.23703022742887" x2="145.7803849466894" y1="26.81831364943548" y2="22.513508569990506" /><path d="M 143.74570117128098 25.957352633546492 a86.0,86.0 0 0,1 28.547481713284135,27.462654790039103" fill="none" id="id50" stroke="none" /><text fill="#e1ed5e" style="font-size:6.75px; font-family:Arial;" text-anchor="middle"><textPath startOffset="19.985693538727396" xlink:href="#id50">February</textPath></text><line stroke="#e1ed5e" stroke-width="0.3" x1="172.23445277983987" x2="176.4835382374775" y1="55.19839476539836" y2="52.563006222186495" /><path d="M 173.08426987136738 54.67131705675599 a86.0,86.0 0 0,1 12.851231095245387,41.99856678651699" fill="none" id="id51" stroke="none" /><text fill="#e1ed5e" style="font-size:6.75px; font-family:Arial;" text-anchor="middle"><textPath startOffset="22.20632615414155" xlink:href="#id51">March</textPath></text><line stroke="#e1ed5e" stroke-width="0.3" x1="184.98032266829074" x2="189.97916517819016" y1="98.17113171792111" y2="98.06355123074" /><path d="M 185.9800911702706 98.14961562048488 a86.0,86.0 0 0,1 -9.607161424134198,41.387399972396054" fill="none" id="id52" stroke="none" /><text fill="#e1ed5e" style="font-size:6.75px; font-family:Arial;" text-anchor="middle"><textPath startOffset="21.466115282336823" xlink:href="#id52">April</textPath></text><line stroke="#e1ed5e" stroke-width="0.3" x1="174.80103733775053" x2="179.2010983576182" y1="140.37084112569926" y2="142.7455964860345" /><path d="M 175.68104954172406 140.8457921977663 a86.0,86.0 0 0,1 -30.038265399797805,32.042727171017184" fill="none" id="id53" stroke="none" /><text fill="#e1ed5e" style="font-size:6.75px; font-family:Arial;" text-anchor="middle"><textPath startOffset="22.206326154141568" xlink:href="#id53">May</textPath></text><path d="M 118.12598468904814 110.60418214915192 l 16.223155940826846 9.490976825913792 a39.79546301080178,39.79546301080178 0 0,0 -0.3509943242878236,0.5882866766622048 l -16.057380740840795 -9.7688255964621" fill="#ff3605" stroke="none" /><path d="M 117.94076556474637 110.91462005526583 l 21.17207362361606 12.880450310212353 a45.78230622274022,45.78230622274022 0 0,0 -0.41538801014197485,0.6697377347706791 l -20.947220973806125 -13.242984376348307" fill="#ffa10e" stroke="none" /><path d="M 116.498646956653 112.99209946851258 l 14.988777028079971 11.803130436805002 a40.07818977014671,40.07818977014671 0 0,0 -0.4314743249665029,0.5383305626060614 l -14.783384791058614 -12.059388832989313" fill="#ff3b05" stroke="none" /><path d="M 115.32070863581623 114.36230785411682 l 19.418773153947868 18.204014240846476 a47.61719153640045,47.61719153640045 0 0,0 -0.565722730003092,0.5931580206785729 l -19.10254387256581 -18.535579378107556" fill="#ffc011" stroke="none" /><path d="M 112.04921762599082 117.19931262002967 l 21.833135431083633 31.165087511129975 a59.051918247684036,59.051918247684036 0 0,0 -0.8375336809469057,0.5760633027951212 l -21.293444865513845 -31.53629160329019" fill="#8cff24" stroke="none" /><line stroke="#e1ed5e" stroke-width="0.3" x1="143.8653032363475" x2="146.44561519142675" y1="172.8068346515853" y2="177.08958963109032" /><path d="M 144.38136562736335 173.6633856474863 a86.0,86.0 0 0,1 -40.68145358897372,12.25698825130547" fill="none" id="id54" stroke="none" /><text fill="#e1ed5e" style="font-size:6.75px; font-family:Arial;" text-anchor="middle"><textPath startOffset="21.466115282336833" xlink:href="#id54">June</textPath></text><path d="M 110.8373102113329 117.98757091392108 l 10.272116884981 17.049473282721173 a40.90479652035998,40.90479652035998 0 0,0 -0.6062327098182125,0.3581729706760695 l -9.977116304134404 -17.223764825690992" fill="#ff4a06" stroke="none" /><path d="M 109.57404056367764 118.69057910512821 l 17.590561065213013 34.34054523857795 a59.583686784336805,59.583686784336805 0 0,0 -0.9168683595339422,0.4597368293452369 l -16.99683879799631 -34.63824990883249" fill="#84ff25" stroke="none" /><path d="M 106.57524785965236 119.94407469862006 l 9.503799595093069 28.826972471768165 a51.35319667896235,51.35319667896235 0 0,0 -0.8418956894244545,0.2695484135641062 l -9.006182560577674 -28.986293731991978" fill="#fffe18" stroke="none" /><path d="M 105.18746579009965 120.34920634021253 l 4.0812797073405305 16.009898909656076 a37.52191596477105,37.52191596477105 0 0,0 -0.627235492836864,0.1541592235755789 l -3.805090929760455 -16.077779391545683" fill="#ff0b01" stroke="none" /><path d="M 104.48393922423573 120.51570834832081 l 4.040297166466385 18.485879081445308 a39.92225479712113,39.92225479712113 0 0,0 -0.6726111726768299,0.14095221091036583 l -3.721494532360177 -18.552687273082213" fill="#ff3805" stroke="none" /><path d="M 104.13013068566511 120.58985236759428 l 3.7232810283853106 18.561593453591335 a39.9313383877828,39.9313383877828 0 0,0 -0.6750913486266191,0.12938286369524313 l -3.4032220651869873 -18.622933515635047" fill="#ff3805" stroke="none" /><path d="M 103.7750983002368 120.6578951692458 l 3.5433815536670696 19.389906926583055 a40.71101325291071,40.71101325291071 0 0,0 -0.6904413924971027,0.12004208621287558 l -3.2090911896979173 -19.44802759131694" fill="#ff4606" stroke="none" /><path d="M 102.70371172650421 120.8252237178851 l 3.506635525659265 27.00970987515674 a48.236389633171925,48.236389633171925 0 0,0 -0.8243198785882901,0.09981365750987857 l -3.041188224019595 -27.066069061391968" fill="#ffcb12" stroke="none" /><path d="M 101.98527174616119 120.90594882070398 l 3.578698790792951 37.68556818969512 a58.85510711668088,58.85510711668088 0 0,0 -1.0093810122858498,0.08709364099381983 l -2.9294734607655593 -37.7415860829676" fill="#8eff24" stroke="none" /><path d="M 101.62511606390274 120.93702456842531 l 2.9289169609779755 37.73441647214179 a58.84791594074038,58.84791594074038 0 0,0 -1.010607139942009,0.06969738529584311 l -2.2789470602570363 -37.77924220195391" fill="#8fff24" stroke="none" /><line stroke="#e1ed5e" stroke-width="0.3" x1="102.19456741930631" x2="102.32365962044197" y1="184.97166512339345" y2="189.96999836594603" /><path d="M 102.22038585953345 185.97133177190398 a86.0,86.0 0 0,1 -42.740103519485714,-10.115201625700543" fill="none" id="id55" stroke="none" /><text fill="#e1ed5e" style="font-size:6.75px; font-family:Arial;" text-anchor="middle"><textPath startOffset="22.20632615414155" xlink:href="#id55">July</textPath></text><path d="M 100.54218724476979 120.99299961872073 l 0.5957499531035957 23.06689922900492 a44.07459117834357,44.07459117834357 0 0,0 -0.758587328731161,0.013059768810428193 l -0.19860293447976676 -23.07373647509451" fill="#ff830c" stroke="none" /><path d="M 100.18074693466247 120.99922214144158 l 0.17994665055486392 20.906244942225918 a41.907019356699145,41.907019356699145 0 0,0 -0.7213871704346243,0.0 l 0.1799466505548495 -20.906244942225918" fill="#ff5c08" stroke="none" /><path d="M 98.37488393609728 120.93702456842531 l -1.2360446071483764 15.92446034001196 a36.97235872973915,36.97235872973915 0 0,0 -0.6340859563339843,-0.054711604407053825 l 1.5099748812239024 -15.900824483326241" fill="#ff0000" stroke="none" /><line stroke="#e1ed5e" stroke-width="0.3" x1="58.666819895761336" x2="56.23545636021788" y1="174.27360380694188" y2="178.64263932499728" /><path d="M 58.180547188652646 175.14741091055294 a86.0,86.0 0 0,1 -31.652253787137756,-30.449443065178592" fill="none" id="id56" stroke="none" /><text fill="#e1ed5e" style="font-size:6.75px; font-family:Arial;" text-anchor="middle"><textPath startOffset="22.20632615414155" xlink:href="#id56">August</textPath></text><line stroke="#e1ed5e" stroke-width="0.3" x1="26.63291911575756" x2="22.317208475507996" y1="142.92168965132927" y2="145.44649492493687" /><path d="M 25.769776987707644 143.4266507060508 a86.0,86.0 0 0,1 -11.730757126820373,-40.83630448921669" fill="none" id="id57" stroke="none" /><text fill="#e1ed5e" style="font-size:6.75px; font-family:Arial;" text-anchor="middle"><textPath startOffset="21.46611528233685" xlink:href="#id57">September</textPath></text><path d="M 81.18737489456691 109.33194174019688 l -17.7440213448033 8.801864306470076 a40.80714792074687,40.80714792074687 0 0,0 -0.3067274002919684,-0.6319492942564356 l 17.892902001709988 -8.495126056248356" fill="#ff4806" stroke="none" /><path d="M 80.45479744820244 107.68017299344265 l -35.352423570955935 13.891528012710737 a58.983791317721405,58.983791317721405 0 0,0 -0.36318769660209954,-0.9481684708425593 l 35.58630554715155 -13.28093597503502" fill="#8dff24" stroke="none" /><path d="M 79.67330655649465 105.27499134158121 l -36.68058768844797 9.518999388584572 a58.89560479171423,58.89560479171423 0 0,0 -0.2462079875458212,-0.9834785229670356 l 36.83900699028885 -8.886193026220143" fill="#8eff24" stroke="none" /><path d="M 79.0095281055655 100.63252640178507 l -38.59720214046548 1.1630872098379552 a59.61472238576423,59.61472238576423 0 0,0 -0.02207997970319795,-1.0259698951933038 l 38.61150418285368 -0.49852749885452236" fill="#84ff25" stroke="none" /><line stroke="#e1ed5e" stroke-width="0.3" x1="15.007084014347285" x2="10.007500721073583" y1="101.09737516637583" y2="101.16192664675087" /><path d="M 14.007167355692545 101.11028546245083 a86.0,86.0 0 0,1 10.666146001902534,-42.60595125391555" fill="none" id="id58" stroke="none" /><text fill="#e1ed5e" style="font-size:6.75px; font-family:Arial;" text-anchor="middle"><textPath startOffset="22.20632615414155" xlink:href="#id58">October</textPath></text><path d="M 79.21141760316559 97.0276538004421 l -37.58977446250387 -5.374576348355324 a58.97205834645007,58.97205834645007 0 0,0 0.15232793414516782,-1.0036507617660282 l 37.491690634919394 6.020826222513445" fill="#8dff24" stroke="none" /><line stroke="#e1ed5e" stroke-width="0.3" x1="26.266209847984243" x2="21.928928074336255" y1="57.711370442889674" y2="55.22380399835377" /><path d="M 25.398753493254645 57.213857153982495 a86.0,86.0 0 0,1 29.58750427330803,-30.492523968695096" fill="none" id="id59" stroke="none" /><text fill="#e1ed5e" style="font-size:6.75px; font-family:Arial;" text-anchor="middle"><textPath startOffset="21.46611528233685" xlink:href="#id59">November</textPath></text><path d="M 82.7489923806493 88.02491185347247 l -37.42824230523251 -25.981467904053904 a66.56215531017578,66.56215531017578 0 0,0 0.6614610386613313,-0.9355897299220842 l 36.9754686467673 26.621884134307773" fill="#30ff3a" stroke="none" /><path d="M 83.6137871275137 86.86637796730984 l -38.44854436041401 -30.816678220058975 a70.27431602725076,70.27431602725076 0 0,0 0.7646565324060445,-0.937378494723686 l 37.91238933593158 31.473940884390743" fill="#37ff73" stroke="none" /><path d="M 84.5562425177563 85.77008943001954 l -27.986811863781693 -25.787107212630428 a59.0557030771264,59.0557030771264 0 0,0 0.6952618868893118,-0.7416569052003464 l 27.538782654921924 26.265033534708827" fill="#8cff24" stroke="none" /><path d="M 85.31137513191541 84.99185889309783 l -39.855824957916354 -40.72279401730022 a77.98098573780143,77.98098573780143 0 0,0 0.9673977840151227,-0.9306359017542782 l 39.1489439302888 41.4028130058168" fill="#43ffe0" stroke="none" /><path d="M 86.10567301691215 84.25364557470407 l -37.57939071523142 -42.5884899649312 a77.7977999927908,77.7977999927908 0 0,0 1.0117648395080556,-0.8773924987250944 l 36.84073207707659 43.22904745707597" fill="#43ffde" stroke="none" /><path d="M 87.22198572758235 83.33499621200491 l -38.334042817252964 -49.99501136398527 a84.0,84.0 0 0,0 1.1550153849664402,-0.8699336419765826 l 37.467781278528136 50.64746159546771" fill="#4dd2ff" stroke="none" /><path d="M 88.70189139769569 82.29822771554957 l -22.958806845911987 -35.97164667244618 a63.67395196270441,63.67395196270441 0 0,0 0.9289752082925002,-0.5817241902084168 l 22.336212485247245 36.361515203977525" fill="#4cff2c" stroke="none" /><line stroke="#e1ed5e" stroke-width="0.3" x1="56.762969772571076" x2="54.21961505331055" y1="26.818313649435495" y2="22.513508569990535" /><path d="M 56.25429882871897 25.957352633546506 a86.0,86.0 0 0,1 42.265352541879196,-11.944610805530505" fill="none" id="id60" stroke="none" /><text fill="#e1ed5e" style="font-size:6.75px; font-family:Arial;" text-anchor="middle"><textPath startOffset="22.20632615414155" xlink:href="#id60">December</textPath></text></svg>