<?xml version="1.0" encoding="utf-8" ?>
<svg baseProfile="full" height="200mm" version="1.1" viewBox="0,0,200,200" width="200mm" xmlns="http://www.w3.org/2000/svg" xmlns:ev="http://www.w3.org/2001/xml-events" xmlns:xlink="http://www.w3.org/1999/xlink"><defs /><rect fill="#1a1a1a" height="200" width="200" x="0" y="0" /><text alignment-baseline="middle" fill="#e1ed5e" style="dominant-baseline: central; font-size:9.0px; font-family:Arial;" text-anchor="middle" x="100.0" y="100.0">2023</text><line stroke="#e1ed5e" stroke-width="0.3" x1="100.0" x2="100.0" y1="15.0" y2="10.0" /><path d="M 100.0 14.0 a86.0,86.0 0 0,1 42.46469731375804,11.215312516191453" fill="none" id="id109" stroke="none" /><text fill="#e1ed5e" style="font-size:6.75px; font-family:Arial;" text-anchor="middle"><textPath startOffset="22.20632615414155" xlink:href="#id109">January</textPath></text><path d="M 100.0 79.0 l 0.0 -44.100376511524445 a65.10037651152444,65.10037651152444 0 0,0 1.120595966771805,0.009645323270777733 l -0.7591154874992766 44.09384256486223" fill="#33ff2f" stroke="none" /><path d="M 100.72285384407766 79.0124445844662 l 2.1685615322329816 -62.9626662466014 a84.0,84.0 0 0,0 1.4446366704426739,0.062209093903220936 l -3.2520390350649873 62.916009426173986" fill="#4dd2ff" stroke="none" /><path d="M 101.44485096284872 79.0497635885617 l 2.051611036301771 -29.748214411051634 a50.8188760433752,50.8188760433752 0 0,0 0.8721724519815005,0.06769736824715918 l -2.5633736776456133 29.708491780616008" fill="#faff18" stroke="none" /><path d="M 101.80526077348638 79.07773832637324 l 4.3641870216567575 -50.57920949747906 a71.76714057094287,71.76714057094287 0 0,0 1.2298662186697449,0.11679061670069689 l -5.234178367416747 50.49659333626319" fill="#3aff8f" stroke="none" /><path d="M 103.59715602781102 79.31037775812273 l 2.5044392372016158 -14.404685630767075 a35.620779186283556,35.620779186283556 0 0,0 0.6031868032742226,0.11022853282534611 l -2.7520211615787393 14.35944161659099" fill="#ff0000" stroke="none" /><path d="M 104.307194497241 79.44645832069477 l 12.049550575011207 -57.49936301205566 a79.74834819679535,79.74834819679535 0 0,0 1.3411290191636265,0.29311885856872016 l -13.03752231832836 57.28343065539107" fill="#46fff9" stroke="none" /><path d="M 104.66035177308747 79.52364482259891 l 7.624949854050474 -33.50201637632463 a55.358768335845625,55.358768335845625 0 0,0 0.927328734260932,0.21946875060979953 l -8.20050227527393 33.36580171357396" fill="#b6ff1f" stroke="none" /><path d="M 105.36241919743992 79.69619591428918 l 7.269727368951716 -27.525472146264303 a49.46929140132676,49.46929140132676 0 0,0 0.821430777630951,0.22452806125393054 l -7.742456035806378 27.396257544184078" fill="#ffef16" stroke="none" /><path d="M 105.71112130821622 79.79150937346287 l 9.558950085469641 -33.82382246439865 a56.14860584489318,56.14860584489318 0 0,0 0.927815023303309,0.27085464766536815 l -10.139755326496378 33.65426948781458" fill="#aaff21" stroke="none" /><path d="M 106.40334571778207 80.00007090966166 l 11.242731232594931 -35.11505349605168 a57.87093689613727,57.87093689613727 0 0,0 0.9460993680651906,0.3119140867096445 l -11.845513422902538 34.916325685082796" fill="#92ff23" stroke="none" /><path d="M 106.74666289553966 80.11325718540242 l 14.245528549614637 -41.99070961608097 a65.34134388716608,65.34134388716608 0 0,0 1.0620084070180948,0.3705138801269111 l -14.966218960696006 41.73927488278185" fill="#30ff2f" stroke="none" /><path d="M 107.4271985657038 80.35727306442388 l 14.813807034792399 -39.17810516126546 a62.88523370940217,62.88523370940217 0 0,0 1.0092086872856652,0.3915572916691651 l -15.48599888707773 38.91730516570575" fill="#4fff2b" stroke="none" /><path d="M 107.76421540070413 80.48803036053334 l 17.482825183580694 -43.93545729851765 a68.2860823544255,68.2860823544255 0 0,0 1.088402535554381,0.44398672241278003 l -18.236511588723463 43.628009689921285" fill="#34ff5c" stroke="none" /><path d="M 108.43124777332544 80.76684994638697 l 20.193609077939286 -46.06515239046545 a71.29691951153109,71.29691951153109 0 0,0 1.1197618549113175,0.5024045040240878 l -20.983553051317383 45.71072755592483" fill="#39ff88" stroke="none" /><path d="M 108.76106565485865 80.91482961587045 l 8.755887891992636 -19.073891107110132 a41.98758906456476,41.98758906456476 0 0,0 0.6542501903297295,0.30717923689708715 l -9.082916293621963 18.920346887573043" fill="#ff730a" stroke="none" /><path d="M 109.41281617654863 81.2277094730956 l 13.64809279170841 -27.218842716000264 a51.44890532760486,51.44890532760486 0 0,0 0.7882450340093269,0.4037697220227997 l -14.114598313306493 26.979880468664966" fill="#f0ff19" stroke="none" /><path d="M 110.05341064243156 81.56283822128135 l 12.048431152272151 -22.095871961763205 a46.16728533198754,46.16728533198754 0 0,0 0.6944349194910875,0.3864522808480556 l -12.426990160835274 21.885204283354966" fill="#ffba11" stroke="none" /><path d="M 110.36928655335952 81.73862282372117 l 15.476363135024513 -27.25546285864522 a52.34291102508085,52.34291102508085 0 0,0 0.7796682667105658,0.4516341841831996 l -15.943228134200407 26.98502451707197" fill="#e3ff1b" stroke="none" /><line stroke="#e1ed5e" stroke-width="0.3" x1="143.23703022742887" x2="145.7803849466894" y1="26.81831364943548" y2="22.513508569990506" /><path d="M 143.74570117128098 25.957352633546492 a86.0,86.0 0 0,1 28.547481713284135,27.462654790039103" fill="none" id="id110" stroke="none" /><text fill="#e1ed5e" style="font-size:6.75px; font-family:Arial;" text-anchor="middle"><textPath startOffset="19.985693538727396" xlink:href="#id110">February</textPath></text><path d="M 110.99172775467656 82.1063720568725 l 31.231752897756305 -50.84272271266694 a80.66912804712038,80.66912804712038 0 0,0 1.1769274204031988,0.7369918426849541 l -32.10229947053177 50.297586528659046" fill="#48faff" stroke="none" /><path d="M 111.60114157652 82.49532879139004 l 25.341121576675263 -38.236582006283484 a66.87165406094573,66.87165406094573 0 0,0 0.9540206492347167,0.6441590010196944 l -25.995546920316524 37.79471109296512" fill="#32ff47" stroke="none" /><path d="M 111.90073688211348 82.69761687909136 l 18.758282343604233 -27.27251186328025 a54.1008014980776,54.1008014980776 0 0,0 0.7627410784355688,0.5343488690152798 l -19.224954561623452 26.945578151501035" fill="#c8ff1d" stroke="none" /><path d="M 112.48926042617603 83.11751280151076 l 25.540729563441207 -34.52494584796599 a63.945322823770034,63.945322823770034 0 0,0 0.8792599006916885,0.6622403282315755 l -26.131235617891278 34.080188930228566" fill="#41ff2d" stroke="none" /><line stroke="#e1ed5e" stroke-width="0.3" x1="172.23445277983987" x2="176.4835382374775" y1="55.19839476539836" y2="52.563006222186495" /><path d="M 173.08426987136738 54.67131705675599 a86.0,86.0 0 0,1 12.851231095245387,41.99856678651699" fill="none" id="id111" stroke="none" /><text fill="#e1ed5e" style="font-size:6.75px; font-family:Arial;" text-anchor="middle"><textPath startOffset="22.20632615414155" xlink:href="#id111">March</textPath></text><line stroke="#e1ed5e" stroke-width="0.3" x1="184.98032266829074" x2="189.97916517819016" y1="98.17113171792111" y2="98.06355123074" /><path d="M 185.9800911702706 98.14961562048488 a86.0,86.0 0 0,1 -9.607161424134198,41.387399972396054" fill="none" id="id112" stroke="none" /><text fill="#e1ed5e" style="font-size:6.75px; font-family:Arial;" text-anchor="middle"><textPath startOffset="21.466115282336823" xlink:href="#id112">April</textPath></text><line stroke="#e1ed5e" stroke-width="0.3" x1="174.80103733775053" x2="179.2010983576182" y1="140.37084112569926" y2="142.7455964860345" /><path d="M 175.68104954172406 140.8457921977663 a86.0,86.0 0 0,1 -30.038265399797805,32.042727171017184" fill="none" id="id113" stroke="none" /><text fill="#e1ed5e" style="font-size:6.75px; font-family:Arial;" text-anchor="middle"><textPath startOffset="22.206326154141568" xlink:href="#id113">May</textPath></text><line stroke="#e1ed5e" stroke-width="0.3" x1="143.8653032363475" x2="146.44561519142675" y1="172.8068346515853" y2="177.08958963109032" /><path d="M 144.38136562736335 173.6633856474863 a86.0,86.0 0 0,1 -40.68145358897372,12.25698825130547" fill="none" id="id114" stroke="none" /><text fill="#e1ed5e" style="font-size:6.75px; font-family:Arial;" text-anchor="middle"><textPath startOffset="21.466115282336833" xlink:href="#id114">June</textPath></text><line stroke="#e1ed5e" stroke-width="0.3" x1="102.19456741930631" x2="102.32365962044197" y1="184.97166512339345" y2="189.96999836594603" /><path d="M 102.22038585953345 185.97133177190398 a86.0,86.0 0 0,1 -42.740103519485714,-10.115201625700543" fill="none" id="id115" stroke="none" /><text fill="#e1ed5e" style="font-size:6.75px; font-family:Arial;" text-anchor="middle"><textPath startOffset="22.20632615414155" xlink:href="#id115">July</textPath></text><line stroke="#e1ed5e" stroke-width="0.3" x1="58.666819895761336" x2="56.23545636021788" y1="174.27360380694188" y2="178.64263932499728" /><path d="M 58.180547188652646 175.14741091055294 a86.0,86.0 0 0,1 -31.652253787137756,-30.449443065178592" fill="none" id="id116" stroke="none" /><text fill="#e1ed5e" style="font-size:6.75px; font-family:Arial;" text-anchor="middle"><textPath startOffset="22.20632615414155" xlink:href="#id116">August</textPath></text><line stroke="#e1ed5e" stroke-width="0.3" x1="26.63291911575756" x2="22.317208475507996" y1="142.92168965132927" y2="145.44649492493687" /><path d="M 25.769776987707644 143.4266507060508 a86.0,86.0 0 0,1 -11.730757126820373,-40.83630448921669" fill="none" id="id117" stroke="none" /><text fill="#e1ed5e" style="font-size:6.75px; font-family:Arial;" text-anchor="middle"><textPath startOffset="21.46611528233685" xlink:href="#id117">September</textPath></text><line stroke="#e1ed5e" stroke-width="0.3" x1="15.007084014347285" x2="10.007500721073583" y1="101.09737516637583" y2="101.16192664675087" /><path d="M 14.007167355692545 101.11028546245083 a86.0,86.0 0 0,1 10.666146001902534,-42.60595125391555" fill="none" id="id118" stroke="none" /><text fill="#e1ed5e" style="font-size:6.75px; font-family:Arial;" text-anchor="middle"><textPath startOffset="22.20632615414155" xlink:href="#id118">October</textPath></text><line stroke="#e1ed5e" stroke-width="0.3" x1="26.266209847984243" x2="21.928928074336255" y1="57.711370442889674" y2="55.22380399835377" /><path d="M 25.398753493254645 57.213857153982495 a86.0,86.0 0 0,1 29.58750427330803,-30.492523968695096" fill="none" id="id119" stroke="none" /><text fill="#e1ed5e" style="font-size:6.75px; font-family:Arial;" text-anchor="middle"><textPath startOffset="21.46611528233685" xlink:href="#id119">November</textPath></text><line stroke="#e1ed5e" stroke-width="0.3" x1="56.762969772571076" x2="54.21961505331055" y1="26.818313649435495" y2="22.513508569990535" /><path d="M 56.25429882871897 25.957352633546506 a86.0,86.0 0 0,1 42.265352541879196,-11.944610805530505" fill="none" id="id120" stroke="none" /><text fill="#e1ed5e" style="font-size:6.75px; font-family:Arial;" text-anchor="middle"><textPath startOffset="22.20632615414155" xlink:href="#id120">December</textPath></text></svg>