<?xml version="1.0" encoding="utf-8" ?>
<svg baseProfile="full" height="200mm" version="1.1" viewBox="0,0,200,200" width="200mm" xmlns="http://www.w3.org/2000/svg" xmlns:ev="http://www.w3.org/2001/xml-events" xmlns:xlink="http://www.w3.org/1999/xlink"><defs /><rect fill="#1a1a1a" height="200" width="200" x="0" y="0" /><text alignment-baseline="middle" fill="#e1ed5e" style="dominant-baseline: central; font-size:9.0px; font-family:Arial;" text-anchor="middle" x="100.0" y="100.0">2023</text><line stroke="#e1ed5e" stroke-width="0.3" x1="100.0" x2="100.0" y1="15.0" y2="10.0" /><path d="M 100.0 14.0 a86.0,86.0 0 0,1 42.46469731375804,11.215312516191453" fill="none" id="id109" stroke="none" /><text fill="#e1ed5e" style="font-size:6.75px; font-family:Arial;" text-anchor="middle"><textPath startOffset="22.20632615414155" xlink:href="#id109">January</textPath></text><path d="M 100.0 79.0 l 0.0 -29.543528741870333 a50.54352874187033,50.54352874187033 0 0,0 0.870023761606481,0.007488569192451344 l -0.5085432823339526 29.53915154928644" fill="#b2ff20" stroke="none" /><path d="M 100.72285384407766 79.0124445844662 l 1.4527531287470368 -42.179670267331176 a63.20468072991272,63.20468072991272 0 0,0 1.086997613405397,0.046808403793455224 l -2.178591574541765 42.148414137013525" fill="#31ff3f" stroke="none" /><path d="M 101.44485096284872 79.0497635885617 l 1.3744061709378035 -19.928791928625756 a40.97612925611894,40.97612925611894 0 0,0 0.7032475707553361,0.05458554630816741 l -1.7172439310554808 19.90218112012912" fill="#ffd013" stroke="none" /><path d="M 101.80526077348638 79.07773832637324 l 2.9236368237246375 -33.883799816071004 a55.00969776773402,55.00969776773402 0 0,0 0.9426956187127313,0.08952030798080603 l -3.506457569527613 33.82845396357502" fill="#7dff26" stroke="none" /><path d="M 103.59715602781102 79.31037775812273 l 1.6777628319612756 -9.649923143829934 a30.794687580629375,30.794687580629375 0 0,0 0.5214638641801768,0.09529418806579001 l -1.843621817244353 9.619613474413406" fill="#ff3c05" stroke="none" /><path d="M 104.307194497241 79.44645832069477 l 8.072181507258477 -38.519718382494624 a60.356433000880806,60.356433000880806 0 0,0 1.015014926590532,0.22184294908328325 l -8.734039158002538 38.37506193531547" fill="#41ff2d" stroke="none" /><path d="M 104.66035177308747 79.52364482259891 l 5.108072605901505 -22.443522301128386 a44.01747377599046,44.01747377599046 0 0,0 0.7373478397210348,0.17450641090872954 l -5.493644132585064 22.352269978078787" fill="#fff917" stroke="none" /><path d="M 105.36241919743992 79.69619591428918 l 4.870103533335166 -18.439742283701424 a40.07202149523563,40.07202149523563 0 0,0 0.6653904037362617,0.1818763326092393 l -5.1867918262951385 18.35317941026589" fill="#ffc312" stroke="none" /><path d="M 105.71112130821622 79.79150937346287 l 6.403689467784415 -22.659105209130075 a44.54659821881366,44.54659821881366 0 0,0 0.736100254717738,0.21488784955013956 l -6.7927799402255795 22.545519030661232" fill="#feff18" stroke="none" /><path d="M 106.40334571778207 80.00007090966166 l 7.53168066990297 -23.52412097801058 a45.700414601813215,45.700414601813215 0 0,0 0.7471303506402822,0.24631712993276467 l -7.93549384278567 23.39099012381858" fill="#efff19" stroke="none" /><path d="M 106.74666289553966 80.11325718540242 l 9.543301337545117 -28.130230047129732 a50.70495653798589,50.70495653798589 0 0,0 0.8241197214097217,0.2875191887849362 l -10.026103063018112 27.96179000517259" fill="#b0ff20" stroke="none" /><path d="M 107.4271985657038 80.35727306442388 l 9.923999941237273 -26.24602253863737 a49.05957009528724,49.05957009528724 0 0,0 0.7873286209519377,0.3054712730453309 l -10.374311727188877 26.07130856170149" fill="#c4ff1e" stroke="none" /><path d="M 107.76421540070413 80.48803036053334 l 11.712016748093664 -29.43304679375636 a52.6776826783633,52.6776826783633 0 0,0 0.8396223859596472,0.34250305289553995 l -12.2169230036417 29.227082854677242" fill="#98ff23" stroke="none" /><path d="M 108.43124777332544 80.76684994638697 l 13.528013078080864 -30.859762689116973 a54.69468936003629,54.69468936003629 0 0,0 0.8590136464687955,0.3854143835237698 l -14.05720884301644 30.622327975076672" fill="#80ff25" stroke="none" /><path d="M 108.76106565485865 80.91482961587045 l 5.865705602991391 -12.777896578614358 a35.05991263112005,35.05991263112005 0 0,0 0.5463032058492819,0.2564966802724814 l -6.084787020140271 12.675034915701874" fill="#ff7c0b" stroke="none" /><path d="M 109.41281617654863 81.2277094730956 l 9.143069822956772 -18.234326455023833 a41.39819568137939,41.39819568137939 0 0,0 0.6342588234872519,0.3248920041365278 l -9.45558913403278 18.074241925574807" fill="#ffd513" stroke="none" /><path d="M 110.05341064243156 81.56283822128135 l 8.071431588539372 -14.802368596749936 a37.859956226589674,37.859956226589674 0 0,0 0.5694784838460424,0.3169141596990503 l -8.325034161457449 14.661239039490706" fill="#ffa40f" stroke="none" /><path d="M 110.36928655335952 81.73862282372117 l 10.367856586887312 -18.258858858652633 a41.99710401523173,41.99710401523173 0 0,0 0.6255633982360935,0.36236669758179274 l -10.680616717588734 18.07768800368079" fill="#ffde14" stroke="none" /><line stroke="#e1ed5e" stroke-width="0.3" x1="143.23703022742887" x2="145.7803849466894" y1="26.81831364943548" y2="22.513508569990506" /><path d="M 143.74570117128098 25.957352633546492 a86.0,86.0 0 0,1 28.547481713284135,27.462654790039103" fill="none" id="id110" stroke="none" /><text fill="#e1ed5e" style="font-size:6.75px; font-family:Arial;" text-anchor="middle"><textPath startOffset="19.985693538727396" xlink:href="#id110">February</textPath></text><path d="M 110.99172775467656 82.1063720568725 l 20.922637455322718 -34.06033142107286 a60.97327775652375,60.97327775652375 0 0,0 0.8895735486516749,0.5570508745560446 l -21.505830156346658 33.695136205193876" fill="#3bff2e" stroke="none" /><path d="M 111.60114157652 82.49532879139004 l 16.976411833039396 -25.615281520290797 a51.730135145955856,51.730135145955856 0 0,0 0.7380050308306445,0.49830429120032216 l -17.414821558276586 25.319265316791803" fill="#a4ff21" stroke="none" /><path d="M 111.90073688211348 82.69761687909136 l 12.566465354815486 -18.2702802522619 a43.17474220842193,43.17474220842193 0 0,0 0.6086998440198632,0.42643314018030387 l -12.879096338419 18.051262269317665" fill="#ffed16" stroke="none" /><path d="M 112.48926042617603 83.11751280151076 l 17.110132330699667 -23.12879867826873 a49.76974029555949,49.76974029555949 0 0,0 0.6843430446090093,0.5154329932803111 l -17.50572152906706 22.83084909548257" fill="#bcff1f" stroke="none" /><path d="M 112.77801427241765 83.33499621200491 l 38.33404281725294 -49.995011363985284 a84.0,84.0 0 0,0 1.1398697793622787,0.8896864431071037 l -39.188945151774654 49.32774653165496" fill="#4dd2ff" stroke="none" /><path d="M 113.6212207817346 84.01681056812373 l 18.421859756323368 -21.616276462356748 a49.4012028790804,49.4012028790804 0 0,0 0.6424654695517231,0.5571397242353887 l -18.791219024521858 21.29597174470169" fill="#c0ff1e" stroke="none" /><path d="M 113.89432698308785 84.25364557470407 l 5.411700485797022 -6.133046530186684 a29.179288593111913,29.179288593111913 0 0,0 0.3737575248244175,0.3355631961258695 l -5.51646899821743 6.038984325291517" fill="#ff2303" stroke="none" /><path d="M 114.16331599549186 84.49514656593476 l 16.213334290220892 -17.749047746120638 a45.03956956146517,45.03956956146517 0 0,0 0.5679106160547412,0.5278110244880377 l -16.51645279007048 17.46733213555796" fill="#f8ff18" stroke="none" /><path d="M 114.68862486808459 84.99185889309783 l 21.638333328807477 -22.109024012352958 a51.935843483366995,51.935843483366995 0 0,0 0.6335287518358039,0.6308081780406466 l -22.015697880810603 21.733279983662193" fill="#a1ff22" stroke="none" /><path d="M 114.94478906791727 85.2469230424477 l 24.6055101451091 -24.289870074507363 a55.57497531072893,55.57497531072893 0 0,0 0.6662003490251373,0.6865780203343569 l -25.01997475783735 23.86272785862289" fill="#76ff27" stroke="none" /><path d="M 115.68641384162765 86.03803664274999 l 21.06417823533424 -18.74853536579931 a49.19941813393596,49.19941813393596 0 0,0 0.5576124677672533,0.6374474437195509 l -21.38378256667934 18.38317236587681" fill="#c3ff1e" stroke="none" /><path d="M 115.9244219780498 86.31012108654704 l 34.08483982482905 -29.301994799530764 a65.94867300728666,65.94867300728666 0 0,0 0.7326250222480294,0.867196944514225 l -34.58417546056419 28.710938905387433" fill="#35ff62" stroke="none" /><path d="M 116.38621287248628 86.86637796730983 l 20.685230152163463 -16.579303380946513 a47.50947089335125,47.50947089335125 0 0,0 0.505966633258945,0.6425262425227853 l -20.967550866016374 16.220784744470688" fill="#d8ff1c" stroke="none" /><path d="M 116.60985879189232 87.15038557335679 l 32.15201800308923 -24.873241823094357 a61.65009742252907,61.65009742252907 0 0,0 0.6421123616111655,0.8449446003153009 l -32.57540630492451 24.316112446898025" fill="#33ff2f" stroke="none" /><path d="M 117.04232023915458 87.72973835380427 l 16.868935778773317 -12.145426960283972 a41.78635105919197,41.78635105919197 0 0,0 0.41525162526181025,0.5873439752621893 l -17.07550002383901 11.85325648468999" fill="#ffdb14" stroke="none" /><path d="M 117.2510076193507 88.02491185347247 l 15.915169965187161 -11.04779311478022 a40.373857843180865,40.373857843180865 0 0,0 0.39138712778286405,0.5743123153864091 l -16.10298155863876 10.772202776123404" fill="#ffc712" stroke="none" /><path d="M 117.45458315368197 88.32363383020206 l 43.392956844275254 -29.028023691136802 a73.20703844408658,73.20703844408658 0 0,0 0.6916439401327866,1.053421171785473 l -43.88619741976596 28.276784455373654" fill="#3effb9" stroke="none" /><line stroke="#e1ed5e" stroke-width="0.3" x1="172.23445277983987" x2="176.4835382374775" y1="55.19839476539836" y2="52.563006222186495" /><path d="M 173.08426987136738 54.67131705675599 a86.0,86.0 0 0,1 12.851231095245387,41.99856678651699" fill="none" id="id111" stroke="none" /><text fill="#e1ed5e" style="font-size:6.75px; font-family:Arial;" text-anchor="middle"><textPath startOffset="22.20632615414155" xlink:href="#id111">March</textPath></text><path d="M 118.03404312379186 89.2402003453031 l 24.076090170533586 -14.364715938911965 a49.035748285096574,49.035748285096574 0 0,0 0.4262381645025056,0.728579190265824 l -24.319788009506418 13.948157336292246" fill="#c5ff1e" stroke="none" /><path d="M 118.21658344932153 89.55222093294921 l 25.474562221241754 -14.610456382109637 a50.36696708986895,50.36696708986895 0 0,0 0.4248630167259899,0.7557838992661549 l -25.722282879260177 14.16978897290869" fill="#b4ff20" stroke="none" /><path d="M 118.3937258080291 89.86733742301442 l 18.851453781952404 -10.384813944262552 a42.522585122378715,42.522585122378715 0 0,0 0.34765635551456336,0.6441544269187113 l -19.027418236685435 10.058778534011381" fill="#ffe515" stroke="none" /><path d="M 118.73160827565052 90.50648371742162 l 18.538037601947764 -9.395411180465212 a41.78298798010623,41.78298798010623 0 0,0 0.3196199356139128,0.6443342867248111 l -18.697017550515085 9.074917305241451" fill="#ffdb14" stroke="none" /><path d="M 118.89224826269711 90.83032412892265 l 40.63488173175042 -19.722834961651017 a66.16839417422173,66.16839417422173 0 0,0 0.4885174925410455,1.0289424267846852 l -40.96835741813322 19.020450119225792" fill="#35ff65" stroke="none" /><path d="M 119.04729006885535 91.15688171328212 l 15.693335413502 -7.285971961001207 a38.30220112636458,38.30220112636458 0 0,0 0.2724885763563214,0.6003924582716177 l -15.816426306821668 7.014757493887526" fill="#ffaa0f" stroke="none" /><path d="M 119.196687751892 91.48605970444005 l 12.91481391310215 -5.727860764604116 a35.1280149826063,35.1280149826063 0 0,0 0.24039152846600131,0.5548567913669117 l -13.011496151410833 5.504704828650601" fill="#ff7d0b" stroke="none" /><path d="M 119.47837535516314 92.15188598940014 l 39.14894016617362 -15.773663881923342 a63.207203039227025,63.207203039227025 0 0,0 0.3979238064629905,1.012672683823911 l -39.41465752251831 15.097442193203648" fill="#31ff3f" stroke="none" /><path d="M 119.61058180528143 92.48833698450437 l 39.38665412047246 -15.086715733298247 a63.17721558404583,63.17721558404583 0 0,0 0.3802528648127146,1.0188886278679123 l -39.640511573786796 14.406503968401001" fill="#31ff3e" stroke="none" /><path d="M 119.85752413597 93.16781622104841 l 23.03543115658228 -7.925575112562722 a45.36074361415339,45.36074361415339 0 0,0 0.24767550568208227,0.7405182372560317 l -23.168443956036132 7.527883772384376" fill="#f4ff19" stroke="none" /><path d="M 119.97218684219823 93.5106431181261 l 40.09132599200695 -13.026461462897322 a63.154514800217086,63.154514800217086 0 0,0 0.32703367427634616,1.0367861174664328 l -40.309615150051506 12.334425179004471" fill="#31ff3e" stroke="none" /><path d="M 120.28053869075195 94.5502522615342 l 27.341566303456883 -7.347173632834704 a49.311520770127316,49.311520770127316 0 0,0 0.21322223652291986,0.8216322561471263 l -27.463984871850105 6.875444951138728" fill="#c1ff1e" stroke="none" /><path d="M 120.37134235888165 94.90015583598534 l 15.053808852940843 -3.768631338689899 a36.51836792796961,36.51836792796961 0 0,0 0.1474076089666231,0.6110997050278101 l -15.116449262168286 3.508946402002683" fill="#ff910d" stroke="none" /><path d="M 120.6074358757038 95.95851677861258 l 26.728411050400364 -5.2419148818945525 a48.2375775154141,48.2375775154141 0 0,0 0.15278512137046749,0.8161842276821711 l -26.81468189568069 4.781052576749819" fill="#cfff1d" stroke="none" /><path d="M 120.67395015179393 96.31383870115 l 30.4008986640066 -5.420474330388069 a51.88035267845227,51.88035267845227 0 0,0 0.14918847247266875,0.8805188096088988 l -30.48969899799949 4.896369732463333" fill="#a2ff22" stroke="none" /><path d="M 120.78858239683441 97.02765380044208 l 34.110923702676956 -4.877171155571477 a55.45782805590896,55.45782805590896 0 0,0 0.12698258364241358,0.9461677419697064 l -34.189822285377204 4.2892850715371065" fill="#78ff26" stroke="none" /><path d="M 120.83666639777658 97.38593545837742 l 16.706020719136944 -2.095854277254636 a37.83697518617045,37.83697518617045 0 0,0 0.07551115587925568,0.6469334696876986 l -16.739622228019787 1.8079770692420845" fill="#ffa40f" stroke="none" /><path d="M 120.91429891909075 98.10471618934814 l 55.84908817248857 -5.061124595305722 a77.07794247177415,77.07794247177415 0 0,0 0.10836981131478193,1.3223861887066886 l -55.927932467622846 4.099024489391264" fill="#44ffe4" stroke="none" /><path d="M 120.94382443527127 98.46500227214037 l 25.121520849221646 -1.8411860519128813 a46.18890183901705,46.18890183901705 0 0,0 0.05129037585909253,0.7934394128824624 l -25.149491816085156 1.4084875747773837" fill="#e9ff1a" stroke="none" /><path d="M 120.98425023603335 99.18683210126433 l 25.483662415080868 -0.9875261677244276 a46.50278922035285,46.50278922035285 0 0,0 0.024111265604568426,0.800135522538878 l -25.49688537514108 0.5487204977605505" fill="#e5ff1a" stroke="none" /><line stroke="#e1ed5e" stroke-width="0.3" x1="184.98032266829074" x2="189.97916517819016" y1="98.17113171792111" y2="98.06355123074" /><path d="M 185.9800911702706 98.14961562048488 a86.0,86.0 0 0,1 -9.607161424134198,41.387399972396054" fill="none" id="id112" stroke="none" /><text fill="#e1ed5e" style="font-size:6.75px; font-family:Arial;" text-anchor="middle"><textPath startOffset="21.466115282336823" xlink:href="#id112">April</textPath></text><path d="M 120.99980553446 99.90962569577887 l 10.10623932193246 -0.0434929907095141 a31.10633290924135,31.10633290924135 0 0,0 -0.002304390781929923,0.5354592625967405 l -10.105490633861026 -0.13047575009091106" fill="#ff4106" stroke="none" /><path d="M 120.99824983174949 100.27111621757518 l 28.452640665460684 0.36736263160285026 a49.455012144452255,49.455012144452255 0 0,0 -0.018317046874844985,0.8511211928204094 l -28.442101555900834 -0.8570736402133745" fill="#bfff1e" stroke="none" /><path d="M 120.9764740272857 100.99374915477107 l 22.554137338492055 1.0684901040833874 a43.579432725072735,43.579432725072735 0 0,0 -0.041947588648816335,0.7490023741207804 l -22.532403398955708 -1.4565641945395913" fill="#fff316" stroke="none" /><path d="M 120.95626037817324 101.35467743843564 l 27.998609468842755 1.8099166487984855 a49.05704778597294,49.05704778597294 0 0,0 -0.06172647734635425,0.8422087414764231 l -27.963306432832063 -2.2915985267716787" fill="#c4ff1e" stroke="none" /><path d="M 120.8583938346157 102.4346265915055 l 23.743572700126077 2.7713894910325076 a44.90476614144505,44.90476614144505 0 0,0 -0.0962212716184887,0.7669782077529935 l -23.69234991926074 -3.1796854530728957" fill="#faff18" stroke="none" /><path d="M 120.81339534386255 102.79330883721812 l 50.68622946640945 6.802460163499294 a72.14066211731628,72.14066211731628 0 0,0 -0.17576883035824786,1.2293267901434755 l -50.5616265850346 -7.673932425623179" fill="#3dffad" stroke="none" /><path d="M 120.76222939487914 103.15116336523771 l 34.0410823995464 5.166545929645962 a55.430923423223035,55.430923423223035 0 0,0 -0.1512953945120433,0.9421165660492254 l -33.94710525067307 -5.751741725388392" fill="#78ff26" stroke="none" /><path d="M 120.5718875245553 104.21870165774334 l 41.197402486183584 8.448400758351863 a63.054743454006775,63.054743454006775 0 0,0 -0.2271951322110025,1.0613800205357224 l -41.04587331524814 -9.156294598303754" fill="#31ff3d" stroke="none" /><path d="M 120.32669344350535 105.2749913415812 l 24.533472801816504 6.366694955487192 a46.34612578627543,46.34612578627543 0 0,0 -0.20703901019602192,0.7704691773416797 l -24.420245715278707 -6.7880550660044205" fill="#e7ff1a" stroke="none" /><path d="M 120.13307415673323 105.97154293290107 l 23.17532734389976 6.8738862798978095 a45.173251955123355,45.173251955123355 0 0,0 -0.2275295550327166,0.7435797506188664 l -23.05357101636091 -7.2717930030687326" fill="#f6ff19" stroke="none" /><path d="M 120.02730092923936 106.31721596034902 l 22.59572828267869 7.127375568349685 a44.69317241563387,44.69317241563387 0 0,0 -0.23774160407110584,0.7316934209512849 l -22.469694427591335 -7.515267889278765" fill="#fcff18" stroke="none" /><path d="M 119.9155931802556 106.66101706037122 l 23.694695570430532 7.924984709539772 a45.98487504114878,45.98487504114878 0 0,0 -0.2575353782270893,0.7485183587662946 l -23.55476936126021 -8.331675771395368" fill="#ebff1a" stroke="none" /><path d="M 119.67450827220406 107.3425965602758 l 28.06134135130739 10.472592536095554 a50.95186259419735,50.95186259419735 0 0,0 -0.3137317761331116,0.8190546684646143 l -27.876915295580773 -10.954070771393312" fill="#adff20" stroke="none" /><path d="M 119.54520255179757 107.68017299344265 l 26.359600199397512 10.357850681406179 a49.321610007384535,49.321610007384535 0 0,0 -0.3172962177435277,0.7875031911660119 l -26.177401367396595 -10.810053240415003" fill="#c1ff1e" stroke="none" /><path d="M 119.41010516605496 108.01547362559984 l 45.7337769772859 18.885929778555948 a70.47986156214134,70.47986156214134 0 0,0 -0.47271520698711944,1.1173591115028112 l -45.40191078910647 -19.670363415724925" fill="#3bff99" stroke="none" /><path d="M 119.26925614724726 108.34839909993367 l 26.44595985115388 11.457703698115768 a49.82130750820751,49.82130750820751 0 0,0 -0.34770270407964676,0.783977806866501 l -26.24481606234296 -11.911229841474958" fill="#bbff1f" stroke="none" /><path d="M 118.97047184881838 109.00673069616215 l 22.564662067601674 10.713167079471072 a45.97870939615825,45.97870939615825 0 0,0 -0.34559950205914364,0.7120373374330393 l -22.376909308927814 -11.099993372869386" fill="#ecff1a" stroke="none" /><path d="M 118.81262510543309 109.33194174019688 l 5.336383710632582 2.647095852485626 a26.956853830618254,26.956853830618254 0 0,0 -0.2097773767322259,0.4139106658775689 l -5.2900276641140875 -2.738560730065889" fill="#ff0000" stroke="none" /><path d="M 118.64920377521936 109.65438752849418 l 17.92860187307092 9.281343719173202 a41.18856375170156,41.18856375170156 0 0,0 -0.3313668826509079,0.6268212631053017 l -17.76618248219512 -9.58857999736464" fill="#ffd313" stroke="none" /><line stroke="#e1ed5e" stroke-width="0.3" x1="174.80103733775053" x2="179.2010983576182" y1="140.37084112569926" y2="142.7455964860345" /><path d="M 175.68104954172406 140.8457921977663 a86.0,86.0 0 0,1 -30.038265399797805,32.042727171017184" fill="none" id="id113" stroke="none" /><text fill="#e1ed5e" style="font-size:6.75px; font-family:Arial;" text-anchor="middle"><textPath startOffset="22.206326154141568" xlink:href="#id113">May</textPath></text><path d="M 118.30583269289576 110.29060199501025 l 21.49266355405657 12.08207515920827 a45.65585380392715,45.65585380392715 0 0,0 -0.39100543669500415,0.6817509368240813 l -21.281506121209183 -12.450245941890666" fill="#f0ff19" stroke="none" /><path d="M 117.14729908036423 112.12312394758627 l 12.248212434651304 8.659474403854107 a36.00017349217506,36.00017349217506 0 0,0 -0.3620935295015017,0.5029162428825312 l -12.0973391127742 -8.869024252187769" fill="#ff890c" stroke="none" /><path d="M 115.07121518719521 114.62390073753431 l 6.66637485205652 6.468516500149079 a30.288824434815876,30.288824434815876 0 0,0 -0.36629194863183145,0.3710518100955765 l -6.5540422783691525 -6.58230880422532" fill="#ff3404" stroke="none" /><line stroke="#e1ed5e" stroke-width="0.3" x1="143.8653032363475" x2="146.44561519142675" y1="172.8068346515853" y2="177.08958963109032" /><path d="M 144.38136562736335 173.6633856474863 a86.0,86.0 0 0,1 -40.68145358897372,12.25698825130547" fill="none" id="id114" stroke="none" /><text fill="#e1ed5e" style="font-size:6.75px; font-family:Arial;" text-anchor="middle"><textPath startOffset="21.466115282336833" xlink:href="#id114">June</textPath></text><path d="M 105.18746579009965 120.34920634021253 l 3.4657719385388694 13.595406921052867 a35.030205432529335,35.030205432529335 0 0,0 -0.5855827881838069,0.14392200217712683 l -3.2312358656118514 -13.653050181544023" fill="#ff7b0b" stroke="none" /><path d="M 104.83641907484287 120.43548508189849 l 3.4125418770876954 14.419128603499944 a35.817446195183145,35.817446195183145 0 0,0 -0.6011870516193979,0.13682821565157768 l -3.1638346760754357 -14.475733552729205" fill="#ff870c" stroke="none" /><line stroke="#e1ed5e" stroke-width="0.3" x1="102.19456741930631" x2="102.32365962044197" y1="184.97166512339345" y2="189.96999836594603" /><path d="M 102.22038585953345 185.97133177190398 a86.0,86.0 0 0,1 -42.740103519485714,-10.115201625700543" fill="none" id="id115" stroke="none" /><text fill="#e1ed5e" style="font-size:6.75px; font-family:Arial;" text-anchor="middle"><textPath startOffset="22.20632615414155" xlink:href="#id115">July</textPath></text><path d="M 97.65516085044442 120.86867818915974 l -1.3596883508659934 12.101000035396723 a33.177148856286195,33.177148856286195 0 0,0 -0.5669699478982418,-0.06865216485477725 l 1.5677857218156246 -12.075802341816598" fill="#ff6008" stroke="none" /><path d="M 97.2962882734958 120.8252237178851 l -2.063307040980044 15.892534069323332 a37.02591261332598,37.02591261332598 0 0,0 -0.6313295567641388,-0.08749652387948297 l 2.3365651889310137 -15.854662979951245" fill="#ff980e" stroke="none" /><path d="M 96.93821686468263 120.77559828337769 l -3.2045793593743546 21.74453594364858 a42.9794033648585,42.9794033648585 0 0,0 -0.730985785020518,-0.11416494613825262 l 3.57840100800339 -21.68615269016322" fill="#ffeb16" stroke="none" /><path d="M 96.58105272829116 120.7198165907248 l -2.6168876777091574 15.859101767767463 a37.07355623370731,37.07355623370731 0 0,0 -0.6287516754201739,-0.10931653815583661 l 2.8894883246013814 -15.811706651090619" fill="#ff990e" stroke="none" /><path d="M 95.16358092515715 120.4354850818985 l -5.577305963555576 23.56597950915304 a45.21697198323798,45.21697198323798 0 0,0 -0.7558699756463796,-0.18577444978873975 l 5.982129223945166 -23.466483801050266" fill="#f5ff19" stroke="none" /><path d="M 94.11515582081647 120.15858648285463 l -5.530618414312 18.94518295028924 a40.735949358078955,40.735949358078955 0 0,0 -0.6714157863221871,-0.20229206871119615 l 5.855909175074434 -18.84717551247232" fill="#ffcc13" stroke="none" /><path d="M 93.76903079525671 120.05430185196036 l -4.993418015280166 16.071257754767043 a37.82912800163705,37.82912800163705 0 0,0 -0.6201791097517261,-0.19856176633171596 l 5.269318470122832 -15.98292314177562" fill="#ffa40f" stroke="none" /><path d="M 93.08242187328487 119.8279376855182 l -9.34922712977972 26.797802575025745 a49.38186517433739,49.38186517433739 0 0,0 -0.8001753704022442,-0.286914418950199 l 9.80912206081169 -26.63290061503559" fill="#c0ff1e" stroke="none" /><path d="M 92.40401165467489 119.57807347666478 l -5.43884578818896 14.01820508781398 a36.03632659234677,36.03632659234677 0 0,0 -0.5763734571067431,-0.22935089357527255 l 5.679340321337562 -13.922507349832642" fill="#ff8a0c" stroke="none" /><path d="M 92.06813273071674 119.44442032107085 l -8.476562568249978 20.77970291978954 a43.442106995738314,43.442106995738314 0 0,0 -0.689961073459223,-0.2884037846634561 l 8.832995101206665 -20.63071409210611" fill="#fff116" stroke="none" /><path d="M 91.40352486487194 119.15986991738527 l -5.9732565066537875 13.31322615975402 a35.59183963984804,35.59183963984804 0 0,0 -0.556812305295423,-0.2556052194421574 l 6.20153680771663 -13.208433869977789" fill="#ff830c" stroke="none" /><path d="M 90.7491055286396 118.85261126421891 l -9.409744141100022 19.176334670892953 a42.360596813082196,42.360596813082196 0 0,0 -0.651841015636839,-0.3268466172378212 l 9.738439064419621 -19.01152021274583" fill="#ffe315" stroke="none" /><line stroke="#e1ed5e" stroke-width="0.3" x1="58.666819895761336" x2="56.23545636021788" y1="174.27360380694188" y2="178.64263932499728" /><path d="M 58.180547188652646 175.14741091055294 a86.0,86.0 0 0,1 -31.652253787137756,-30.449443065178592" fill="none" id="id116" stroke="none" /><text fill="#e1ed5e" style="font-size:6.75px; font-family:Arial;" text-anchor="middle"><textPath startOffset="22.20632615414155" xlink:href="#id116">August</textPath></text><path d="M 88.54995079064634 117.60387380957326 l -17.891586898134083 27.507413483469687 a53.81412315275319,53.81412315275319 0 0,0 -0.7721693748118168,-0.5117517565162053 l 18.36243097168586 -27.195363705862164" fill="#8bff24" stroke="none" /><path d="M 87.95078237400918 117.19931262002967 l -10.721249056171688 15.303741696600964 a39.68554765696594,39.68554765696594 0 0,0 -0.5561129597521767,-0.3967718310683189 l 10.983089343772752 -15.116925603688426" fill="#ffbe11" stroke="none" /><path d="M 87.36589467227662 116.77436683061367 l -12.479265962892109 16.56878580701721 a41.74263103107734,41.74263103107734 0 0,0 -0.5702267447577329,-0.4372255521644359 l 12.762621436143329 -16.351520913025407" fill="#ffda14" stroke="none" /><path d="M 86.79598089348748 116.32954008644616 l -14.160631183207913 17.512591635187956 a43.52141961084371,43.52141961084371 0 0,0 -0.5784822981679745,-0.47605154851788656 l 14.459983609920577 -17.266244967812888" fill="#fff216" stroke="none" /><path d="M 85.97065885151581 115.62618273729859 l -14.00456447101082 15.598585939578411 a41.962912711193354,41.962912711193354 0 0,0 -0.5333295384905028,-0.4871838882897646 l 14.270993558968177 -15.355209284702072" fill="#ffdd14" stroke="none" /><path d="M 85.44109423537348 115.13401014063109 l -18.899622074478202 19.646192973114953 a48.2611190690143,48.2611190690143 0 0,0 -0.593726781422729,-0.5810866185448512 l 19.234998808276725 -19.31795625164753" fill="#ceff1d" stroke="none" /><path d="M 84.9287848128048 114.62390073753433 l -14.090018027730967 13.671825560733279 a40.63281493278291,40.63281493278291 0 0,0 -0.48274386308383815,-0.5061550104588727 l 14.323268442193763 -13.427263433691905" fill="#ffcb12" stroke="none" /><path d="M 84.19399662182784 113.82643327865904 l -19.47438780233829 17.035383148380642 a46.87384894614625,46.87384894614625 0 0,0 -0.5260082671146297,-0.6118664498372313 l 19.764738579023696 -16.697639599381883" fill="#e0ff1b" stroke="none" /><path d="M 83.72743513129214 113.27417163493432 l -24.199281766192872 19.74030659569208 a52.22955239018835,52.22955239018835 0 0,0 -0.5622936312768482,-0.7015477616161055 l 24.535493309524583 -19.320831000497716" fill="#9eff22" stroke="none" /><path d="M 82.24976979558568 111.22182372390057 l -9.584432601456491 6.059347507527117 a32.339181650755805,32.339181650755805 0 0,0 -0.2934170299366755,-0.47308167827415787 l 9.687314271061123 -5.893469497887695" fill="#ff5307" stroke="none" /><path d="M 82.05923443525364 110.91462005526583 l -15.781990118067073 9.601286256877591 a39.47311316138331,39.47311316138331 0 0,0 -0.34815121205790545,-0.5835214570293535 l 15.944922205823211 -9.328202705962127" fill="#ffbb11" stroke="none" /><line stroke="#e1ed5e" stroke-width="0.3" x1="26.63291911575756" x2="22.317208475507996" y1="142.92168965132927" y2="145.44649492493687" /><path d="M 25.769776987707644 143.4266507060508 a86.0,86.0 0 0,1 -11.730757126820373,-40.83630448921669" fill="none" id="id117" stroke="none" /><text fill="#e1ed5e" style="font-size:6.75px; font-family:Arial;" text-anchor="middle"><textPath startOffset="21.46611528233685" xlink:href="#id117">September</textPath></text><path d="M 81.35079622478065 109.6543875284942 l -20.59091313738653 10.659578681747426 a44.18646850004893,44.18646850004893 0 0,0 -0.3438576885583438,-0.6784638413129884 l 20.77134949573114 -10.303560628731752" fill="#fffb17" stroke="none" /><line stroke="#e1ed5e" stroke-width="0.3" x1="15.007084014347285" x2="10.007500721073583" y1="101.09737516637583" y2="101.16192664675087" /><path d="M 14.007167355692545 101.11028546245083 a86.0,86.0 0 0,1 10.666146001902534,-42.60595125391555" fill="none" id="id118" stroke="none" /><text fill="#e1ed5e" style="font-size:6.75px; font-family:Arial;" text-anchor="middle"><textPath startOffset="22.20632615414155" xlink:href="#id118">October</textPath></text><path d="M 79.00019446554 99.90962569577889 l -16.36459128937856 -0.07042629748231252 a37.36474283121436,37.36474283121436 0 0,0 0.008303856611507919,-0.6431428457323284 l 16.360954425649336 0.35210540127511286" fill="#ff9d0e" stroke="none" /><path d="M 79.00486145842228 99.54816195383935 l -15.58678472640853 -0.3354444336130506 a36.590393871722554,36.590393871722554 0 0,0 0.018971780403028934,-0.6295810296824237 l 15.578701251549855 0.6036956107204687" fill="#ff920d" stroke="none" /><path d="M 79.05617556472873 98.46500227214037 l -15.552602245413125 -1.1398686607021573 a36.594317463989256,36.594317463989256 0 0,0 0.051450767257022634,-0.6278296805502702 l 15.530676994336604 1.4074122584602058" fill="#ff920d" stroke="none" /><path d="M 79.12142395522702 97.74499172005258 l -18.8224272308403 -2.032932186717729 a39.93189319999644,39.93189319999644 0 0,0 0.07969197847191614,-0.6827522044762664 l 18.784644899364796 2.356628129518857" fill="#ffc112" stroke="none" /><path d="M 79.16333360222342 97.38593545837743 l -17.564165765315295 -2.2035128870322063 a38.70184702438677,38.70184702438677 0 0,0 0.08861617375162778,-0.6602934246217724 l 17.523633592505835 2.505524653718638" fill="#ffb010" stroke="none" /><path d="M 79.26566170972629 96.67025291283419 l -20.067925511697652 -3.222727225849348 a41.325048711264536,41.325048711264536 0 0,0 0.11883536972663676,-0.7013730790112076 l 20.009478280450793 3.5676860931763836" fill="#ffd413" stroke="none" /><path d="M 79.3925641242962 95.95851677861259 l -19.574103059031945 -3.8388283512775367 a40.94698257070918,40.94698257070918 0 0,0 0.1415999383067308,-0.6904915873781421 l 19.50512382481022 4.1751955948190815" fill="#ffcf13" stroke="none" /><path d="M 81.6062741919709 89.86733742301443 l -13.831010884555532 -7.619172312041357 a36.790777333914605,36.790777333914605 0 0,0 0.3103430988387911,-0.5520657438206692 l 13.69781014442431 7.85612156579681" fill="#ff950d" stroke="none" /><line stroke="#e1ed5e" stroke-width="0.3" x1="26.266209847984243" x2="21.928928074336255" y1="57.711370442889674" y2="55.22380399835377" /><path d="M 25.398753493254645 57.213857153982495 a86.0,86.0 0 0,1 29.58750427330803,-30.492523968695096" fill="none" id="id119" stroke="none" /><text fill="#e1ed5e" style="font-size:6.75px; font-family:Arial;" text-anchor="middle"><textPath startOffset="21.46611528233685" xlink:href="#id119">November</textPath></text><path d="M 82.34701348167596 88.62581576622439 l -15.304087171590638 -9.860739815257043 a39.20574837406693,39.20574837406693 0 0,0 0.37040725670122027,-0.5641556641371418 l 15.132083279531496 10.122713543371852" fill="#ffb711" stroke="none" /><path d="M 82.54541684631803 88.32363383020206 l -13.2219667035527 -8.844927624810724 a36.907644332144095,36.907644332144095 0 0,0 0.35778540075353904,-0.5250059272062152 l 13.067756837130421 9.071211575287355" fill="#ff970d" stroke="none" /><path d="M 84.80347519578584 85.50635884689758 l -9.813174449071285 -9.359286473061998 a34.560775643478024,34.560775643478024 0 0,0 0.41429439540963203,-0.42696679197511495 l 9.650615789958536 9.526817460587235" fill="#ff740a" stroke="none" /><line stroke="#e1ed5e" stroke-width="0.3" x1="56.762969772571076" x2="54.21961505331055" y1="26.818313649435495" y2="22.513508569990535" /><path d="M 56.25429882871897 25.957352633546506 a86.0,86.0 0 0,1 42.265352541879196,-11.944610805530505" fill="none" id="id120" stroke="none" /><text fill="#e1ed5e" style="font-size:6.75px; font-family:Arial;" text-anchor="middle"><textPath startOffset="22.20632615414155" xlink:href="#id120">December</textPath></text></svg>