<?xml version="1.0" encoding="utf-8" ?>
<svg baseProfile="full" height="200mm" version="1.1" viewBox="0,0,200,200" width="200mm" xmlns="http://www.w3.org/2000/svg" xmlns:ev="http://www.w3.org/2001/xml-events" xmlns:xlink="http://www.w3.org/1999/xlink"><defs /><rect fill="#1a1a1a" height="200" width="200" x="0" y="0" /><text alignment-baseline="middle" fill="#e1ed5e" style="dominant-baseline: central; font-size:9.0px; font-family:Arial;" text-anchor="middle" x="100.0" y="100.0">2020</text><line stroke="#e1ed5e" stroke-width="0.3" x1="100.0" x2="100.0" y1="15.0" y2="10.0" /><path d="M 100.0 14.0 a86.0,86.0 0 0,1 42.35913384403234,11.155469271406648" fill="none" id="id73" stroke="none" /><text fill="#e1ed5e" style="font-size:6.75px; font-family:Arial;" text-anchor="middle"><textPath startOffset="22.145653131862478" xlink:href="#id73">January</textPath></text><line stroke="#e1ed5e" stroke-width="0.3" x1="143.13028292997686" x2="145.6673583964461" y1="26.7553504044142" y2="22.446841604673864" /><path d="M 143.63769802327073 25.89364864446614 a86.0,86.0 0 0,1 29.32050498858742,28.57503671076993" fill="none" id="id74" stroke="none" /><text fill="#e1ed5e" style="font-size:6.75px; font-family:Arial;" text-anchor="middle"><textPath startOffset="20.669276256404974" xlink:href="#id74">February</textPath></text><path d="M 115.8921839302757 86.27271002978787 l 20.215700913410842 -17.46184096578464 a47.713113883162976,47.713113883162976 0 0,0 0.530082326711724,0.6244356479933634 l -20.51247780362968 17.11223853534172" fill="#d1ff1d" stroke="none" /><path d="M 116.57777611688842 87.10902102172516 l 26.76428176790375 -20.812067385032986 a54.90381877297746,54.90381877297746 0 0,0 0.5721710559125528,0.7489902791271763 l -27.11760480117061 20.349556192664927" fill="#7bff26" stroke="none" /><path d="M 117.21940702142032 87.97951657250589 l 27.22411413238995 -19.00454599566165 a54.20128248719639,54.20128248719639 0 0,0 0.5260370308886863,0.7675037488737277 l -27.546340900093963 18.534407511717873" fill="#83ff25" stroke="none" /><line stroke="#e1ed5e" stroke-width="0.3" x1="172.87174338648825" x2="177.1583165268699" y1="56.24261187166439" y2="53.66864786411523" /><path d="M 173.72905801456457 55.72781907015455 a86.0,86.0 0 0,1 12.242430191666344,42.057860355516425" fill="none" id="id75" stroke="none" /><text fill="#e1ed5e" style="font-size:6.75px; font-family:Arial;" text-anchor="middle"><textPath startOffset="22.145653131862474" xlink:href="#id75">March</textPath></text><path d="M 118.36410011445183 89.81374322990088 l 29.0693047022833 -16.12425329748025 a54.2417812440232,54.2417812440232 0 0,0 0.44466547077647395,0.8181343825129651 l -29.341815522675116 15.622864081492684" fill="#82ff25" stroke="none" /><path d="M 119.0197475246899 91.09779779509293 l 29.908903613320085 -13.998877080109523 a54.022887136876555,54.022887136876555 0 0,0 0.385917729710176,0.8432998864781309 l -30.144805807885312 13.483388211416708" fill="#85ff25" stroke="none" /><path d="M 119.31412917781788 91.75594674310238 l 35.030228627751576 -14.952321575034173 a59.087909343987086,59.087909343987086 0 0,0 0.3901888536372501,0.936311205464755 l -35.28174332592531 14.34877786012814" fill="#4cff2c" stroke="none" /><path d="M 119.71291397450082 92.76114493625339 l 34.29473954947186 -12.593503394205921 a57.533895063433704,57.533895063433704 0 0,0 0.33249065340990136,0.9300355332040132 l -34.505870372925706 12.002932904620991" fill="#5dff2a" stroke="none" /><path d="M 119.83427380445688 93.10060997987247 l 19.24196844577034 -6.693355469990796 a41.372882886711864,41.372882886711864 0 0,0 0.22757957738068743,0.672798582285177 l -19.35403344472339 6.362055213231457" fill="#ffdb14" stroke="none" /><path d="M 120.43855184770803 95.1765574152323 l 32.480410451948494 -7.665288427087413 a54.372649127653695,54.372649127653695 0 0,0 0.20658794422489474,0.9102646002887235 l -32.60720925773105 7.106589492859663" fill="#81ff25" stroke="none" /><path d="M 120.7213421655516 96.59031103205396 l 32.66659683382453 -5.375276077907843 a54.105892853348074,54.105892853348074 0 0,0 0.14293877152526915,0.9177694505482742 l -32.754057097488065 4.813718445428128" fill="#84ff25" stroke="none" /><path d="M 120.98066250479742 99.09900007780936 l 33.061028983788006 -1.4197828374163233 a54.09150073315341,54.09150073315341 0 0,0 0.03187615487538058,0.9280394692609756 l -33.080529825660236 0.8520371035912279" fill="#84ff25" stroke="none" /><line stroke="#e1ed5e" stroke-width="0.3" x1="184.99686870605535" x2="189.99668451229388" y1="99.2704041080226" y2="99.22748670261217" /><path d="M 185.99683186730306 99.26182062694052 a86.0,86.0 0 0,1 -10.086455211305974,41.156179273409016" fill="none" id="id76" stroke="none" /><text fill="#e1ed5e" style="font-size:6.75px; font-family:Arial;" text-anchor="middle"><textPath startOffset="21.40746469413373" xlink:href="#id76">April</textPath></text><path d="M 120.82617615685814 102.69636545807757 l 32.886301117531026 4.257790086349964 a54.16078373036956,54.16078373036956 0 0,0 -0.12729198403624262,0.9210213860553135 l -32.80836461693957 -4.821699780605361" fill="#83ff25" stroke="none" /><path d="M 120.51834098615036 104.47187691870673 l 39.21668589783378 8.54709416385411 a61.13728031961239,61.13728031961239 0 0,0 -0.2322900439718787,1.023512794129598 l -39.064184992304234 -9.219041291922725" fill="#36ff2e" stroke="none" /><line stroke="#e1ed5e" stroke-width="0.3" x1="174.33088141563837" x2="178.70328620479359" y1="141.23008692659167" y2="143.65538615756765" /><path d="M 175.20536237346943 141.71514677278685 a86.0,86.0 0 0,1 -30.301960400862466,31.631185727798858" fill="none" id="id77" stroke="none" /><text fill="#e1ed5e" style="font-size:6.75px; font-family:Arial;" text-anchor="middle"><textPath startOffset="22.145653131862474" xlink:href="#id77">May</textPath></text><path d="M 115.89218393027572 113.72728997021213 l 25.17616157957932 21.746568744488666 a54.26788788065538,54.26788788065538 0 0,0 -0.6150074713300926,0.6997656070092761 l -24.79914304429064 -22.175546629309235" fill="#82ff25" stroke="none" /><path d="M 114.91283532996324 114.78537596483092 l 35.63716680887068 35.332577469816755 a71.18364961642264,71.18364961642264 0 0,0 -0.8677899741162726,0.8603730103584247 l -35.02538491462444 -35.93913049040384" fill="#3cffa3" stroke="none" /><path d="M 112.45986205192187 116.90419585922612 l 19.600710484944972 26.59212819827247 a54.03527105425336,54.03527105425336 0 0,0 -0.7513964408300878,0.5439530771198028 l -19.141333033740917 -26.92468204676535" fill="#85ff25" stroke="none" /><line stroke="#e1ed5e" stroke-width="0.3" x1="143.1302829299769" x2="145.66735839644613" y1="173.24464959558577" y2="177.55315839532614" /><path d="M 143.63769802327073 174.10635135553383 a86.0,86.0 0 0,1 -40.68552437913181,11.842963189579606" fill="none" id="id78" stroke="none" /><text fill="#e1ed5e" style="font-size:6.75px; font-family:Arial;" text-anchor="middle"><textPath startOffset="21.407464694133747" xlink:href="#id78">June</textPath></text><path d="M 110.34350942703117 118.27599006163325 l 16.388506741567593 28.956921095963786 a54.27290838770003,54.27290838770003 0 0,0 -0.814754752137823,0.4519307267010088 l -15.889007801273674 -29.233984738097938" fill="#82ff25" stroke="none" /><path d="M 108.73861861582097 119.09545874513695 l 13.860163709226422 30.286959065956772 a54.30771723654292,54.30771723654292 0 0,0 -0.8510448506691773,0.3806615368508376 l -13.338205455701617 -30.520424353717463" fill="#82ff25" stroke="none" /><path d="M 106.38641147887787 120.00534299687104 l 9.236084820248315 28.93190415123809 a51.37038591495421,51.37038591495421 0 0,0 -0.8423749325149551,0.2609699073855624 l -8.738069254861736 -29.086190646430296" fill="#a4ff21" stroke="none" /><path d="M 102.875027216393 120.80226474461374 l 2.4384913245782154 17.6437084915533 a38.811420192532466,38.811420192532466 0 0,0 -0.6607592134641214,0.08554850904324275 l -2.1352542892233184 -17.68296859679694" fill="#ffb811" stroke="none" /><path d="M 102.15924093988457 120.88869738790638 l 3.443970256571944 33.31728811437207 a54.49481479907346,54.49481479907346 0 0,0 -0.9313434678400093,0.08819919471860202 l -2.8715272253469193 -33.37149906459585" fill="#7fff26" stroke="none" /><path d="M 100.72087961077811 120.9876233191556 l 1.7970670663525776 52.31964686469275 a73.3505004568927,73.3505004568927 0 0,0 -1.2587877986148548,0.03242190846459638 l -0.898665953666979 -52.34278649050739" fill="#3fffbc" stroke="none" /><line stroke="#e1ed5e" stroke-width="0.3" x1="101.45913802915013" x2="101.54496967792366" y1="184.9874750549273" y2="189.98673829345242" /><path d="M 101.47630435890484 185.9873277026323 a86.0,86.0 0 0,1 -42.54439059252881,-10.42667462771756" fill="none" id="id79" stroke="none" /><text fill="#e1ed5e" style="font-size:6.75px; font-family:Arial;" text-anchor="middle"><textPath startOffset="22.145653131862474" xlink:href="#id79">July</textPath></text><path d="M 99.63950707515114 120.99690560180557 l -0.574896852234275 33.4848594939817 a54.48979429202881,54.48979429202881 0 0,0 -0.9351141134224361,-0.024085222483637307 l 1.149624279727455 -33.47005655414802" fill="#7fff26" stroke="none" /><path d="M 98.55909050195518 120.95050786540614 l -2.298651318799045 33.42188569071919 a54.500839407527046,54.500839407527046 0 0,0 -0.9328234044686129,-0.07220643109339903 l 2.8720437180428937 -33.37750149263074" fill="#7fff26" stroke="none" /><path d="M 95.00130118170881 120.39639698878247 l -2.5256139029047056 10.305366591708879 a31.610339588159043,31.610339588159043 0 0,0 -0.5259278729262397,-0.13368880867290253 l 2.702147069056324 -10.260492551200713" fill="#ff5007" stroke="none" /><path d="M 91.92203290615298 119.3841803445677 l -4.478098658937891 10.745806586874755 a32.64155173512974,32.64155173512974 0 0,0 -0.5153711260656559,-0.21998128785594898 l 4.661904860173978 -10.667350649359403" fill="#ff5f08" stroke="none" /><line stroke="#e1ed5e" stroke-width="0.3" x1="58.13341422392154" x2="55.67067388415222" y1="173.97424548756322" y2="178.32567169271397" /><path d="M 57.64086615596768 174.84453072859336 a86.0,86.0 0 0,1 -31.369924170532247,-30.572349798747897" fill="none" id="id80" stroke="none" /><text fill="#e1ed5e" style="font-size:6.75px; font-family:Arial;" text-anchor="middle"><textPath startOffset="22.145653131862474" xlink:href="#id80">August</textPath></text><path d="M 83.8745106332314 113.45245675266167 l -41.2436710712358 34.40693728961764 a74.7110578659923,74.7110578659923 0 0,0 -0.8131166625390153,-0.9918701173776355 l 41.828234553013445 -33.693864890541505" fill="#41ffcb" stroke="none" /><path d="M 82.576782715395 111.72311816256416 l -52.26965185381499 35.16935448769248 a84.0,84.0 0 0,0 -0.7947022443170932,-1.2032804866437559 l 52.86567853705281 -34.266894122709665" fill="#4dd2ff" stroke="none" /><line stroke="#e1ed5e" stroke-width="0.3" x1="26.387840678322732" x2="22.057713659400548" y1="142.50000000000003" y2="145.00000000000006" /><path d="M 25.521815274538298 143.00000000000003 a86.0,86.0 0 0,1 -11.493303480769221,-40.785679425670985" fill="none" id="id81" stroke="none" /><text fill="#e1ed5e" style="font-size:6.75px; font-family:Arial;" text-anchor="middle"><textPath startOffset="21.40746469413373" xlink:href="#id81">September</textPath></text><path d="M 81.63589988554817 110.18625677009913 l -29.41819021352115 16.317774209405567 a54.6407442038379,54.6407442038379 0 0,0 -0.44793610548428175,-0.8241519819960539 l 29.69397166862076 -15.810367393934925" fill="#7eff26" stroke="none" /><path d="M 80.41425534168474 107.57618678355246 l -29.341782119073706 11.350031656928788 a52.4605053445821,52.4605053445821 0 0,0 -0.31768412340093494,-0.8426948804653397 l 29.532296926289074 -10.844668496269303" fill="#97ff23" stroke="none" /><path d="M 80.16572619554312 106.89939002012753 l -5.088283430040237 1.7699691081662559 a26.387338759376924,26.387338759376924 0 0,0 -0.1451486815531694,-0.42910628578144155 l 5.117917533165774 -1.6823611479106526" fill="#ff0000" stroke="none" /><path d="M 79.73907114497094 105.5222062557868 l -25.879863058024213 7.053671759103667 a47.82389973861487,47.82389973861487 0 0,0 -0.20908271737831638,-0.7939211336095986 l 25.99713525620726 -6.608370121121265" fill="#cfff1d" stroke="none" /><path d="M 79.34024301695615 103.76489593502545 l -26.71824597485194 4.868954448219745 a48.15826550778843,48.15826550778843 0 0,0 -0.14123026526450416,-0.8145786395631601 l 26.797891057608677 -4.409582775735992" fill="#cbff1d" stroke="none" /><path d="M 79.17382384314188 102.69636545807758 l -29.896275274070234 3.87067137851114 a51.14580189982361,51.14580189982361 0 0,0 -0.10525785022319176,-0.871685995179528 l 29.95831521055309 -3.356891706408213" fill="#a7ff21" stroke="none" /><path d="M 79.13060592940153 102.33845913500099 l -33.274857833509365 3.7285172249563807 a54.48310028263595,54.48310028263595 0 0,0 -0.09616943703137039,-0.9303520653980378 l 33.3339596630224 -3.1567606372754113" fill="#80ff26" stroke="none" /><path d="M 79.06263194458094 101.62068470465958 l -26.727213055379842 2.0688553251954973 a47.807164715132714,47.807164715132714 0 0,0 -0.05631237538007644,-0.8187695791587586 l 26.758789391924985 -1.6097423218823954" fill="#d0ff1d" stroke="none" /><line stroke="#e1ed5e" stroke-width="0.3" x1="15.003131293944662" x2="10.003315487706104" y1="100.72959589197737" y2="100.7725132973878" /><path d="M 14.003168132696942 100.73817937305945 a86.0,86.0 0 0,1 10.791469493833604,-42.45332614584628" fill="none" id="id82" stroke="none" /><text fill="#e1ed5e" style="font-size:6.75px; font-family:Arial;" text-anchor="middle"><textPath startOffset="22.145653131862435" xlink:href="#id82">October</textPath></text><path d="M 79.00077361379809 99.81974689727619 l -26.77772868075805 -0.22985459510902018 a47.77871517521304,47.77871517521304 0 0,0 0.014080087951888538,-0.8200945350448465 l 26.769837161207494 0.6894960461229191" fill="#d0ff1d" stroke="none" /><path d="M 79.06263194458094 98.37931529534042 l -13.381125894993023 -1.0357837724272383 a34.421154132222625,34.421154132222625 0 0,0 0.050658722704267176,-0.5887311471110469 l 13.361373549591013 1.2653359669139659" fill="#ff7a0b" stroke="none" /><line stroke="#e1ed5e" stroke-width="0.3" x1="26.387840678322718" x2="22.05771365940052" y1="57.49999999999999" y2="54.99999999999999" /><path d="M 25.521815274538284 56.99999999999999 a86.0,86.0 0 0,1 29.574782752854787,-30.34633250058573" fill="none" id="id83" stroke="none" /><text fill="#e1ed5e" style="font-size:6.75px; font-family:Arial;" text-anchor="middle"><textPath startOffset="21.40746469413373" xlink:href="#id83">November</textPath></text><path d="M 86.96720088162412 83.53348406188908 l -14.805120765702881 -18.70578644232828 a44.855775973818986,44.855775973818986 0 0,0 0.6078813222770575,-0.47269219293994813 l 14.481829498790578 18.95717968688903" fill="#f5ff19" stroke="none" /><path d="M 87.54013794807813 83.09580414077388 l -19.869795526708486 -26.957193736703275 a54.48879019061989,54.48879019061989 0 0,0 0.7577029265433176,-0.5485184864338649 l 19.404111589791203 27.29431299451022" fill="#7fff26" stroke="none" /><line stroke="#e1ed5e" stroke-width="0.3" x1="56.869717070023135" x2="54.33264160355391" y1="26.7553504044142" y2="22.446841604673864" /><path d="M 56.362301976729285 25.89364864446614 a86.0,86.0 0 0,1 42.16139366436587,-11.88097634709845" fill="none" id="id84" stroke="none" /><text fill="#e1ed5e" style="font-size:6.75px; font-family:Arial;" text-anchor="middle"><textPath startOffset="22.145653131862474" xlink:href="#id84">December</textPath></text><path d="M 91.92203290615298 80.6158196554323 l -12.883385041226449 -30.915434067299064 a54.49247189578597,54.49247189578597 0 0,0 0.8665484708715716,-0.35241771923535997 l 12.350782109164436 31.132039043113714" fill="#7fff26" stroke="none" /></svg>